<?xml version="1.0" encoding="UTF-8"?>
<svg version="1.1" xmlns="http://www.w3.org/2000/svg" width="201" height="202">
<path d="M0 0 C2.09395528 2.09395528 1.18814123 6.6566739 1.203125 9.546875 C1.21009399 10.42149887 1.21706299 11.29612274 1.22424316 12.19725037 C1.2417669 15.04821482 1.24797557 17.89898375 1.25 20.75 C1.25100708 21.71306061 1.25201416 22.67612122 1.25305176 23.66836548 C1.24334801 37.29856897 1.04839161 50.65091758 -2 64 C-2.1551709 64.68932617 -2.3103418 65.37865234 -2.47021484 66.08886719 C-4.43874361 74.55293889 -7.13015918 82.80263552 -10 91 C2.5332038 94.52250646 13.00222034 95.70462684 26 94 C26.36539443 98.28577219 25.48423598 100.34492062 23 103.8125 C22.443125 104.60269531 21.88625 105.39289063 21.3125 106.20703125 C20.879375 106.79871094 20.44625 107.39039063 20 108 C20.598125 108.28875 21.19625 108.5775 21.8125 108.875 C24 110 24 110 27 112 C26.375 113.875 26.375 113.875 25 116 C19.51279257 118.56544763 14.04262942 118.22924008 8.125 118.125 C6.66320312 118.11146484 6.66320312 118.11146484 5.171875 118.09765625 C2.78099272 118.07421623 0.39062739 118.04140442 -2 118 C-3.78286936 121.56573871 -3.29559415 125.80124379 -3.42578125 129.73828125 C-4.26274325 134.49245314 -6.42145378 136.82712912 -10.234375 139.66015625 C-19.31195591 144.72048474 -28.88817014 146.84480685 -38.99609375 148.76953125 C-40.85427734 149.13111328 -40.85427734 149.13111328 -42.75 149.5 C-43.85859375 149.6959375 -44.9671875 149.891875 -46.109375 150.09375 C-49.39442611 151.12365791 -50.71752848 152.49133761 -53 155 C-53.66 155 -54.32 155 -55 155 C-55 155.66 -55 156.32 -55 157 C-59.47058824 161 -59.47058824 161 -62 161 C-62 161.66 -62 162.32 -62 163 C-64.046875 164.76171875 -64.046875 164.76171875 -66.75 166.6875 C-67.63171875 167.33074219 -68.5134375 167.97398437 -69.421875 168.63671875 C-72 170 -72 170 -73.94140625 169.9921875 C-76.98531213 168.52510573 -79.55359896 166.52522165 -82.1875 164.4375 C-83.05024536 163.76847656 -83.05024536 163.76847656 -83.93041992 163.0859375 C-88.09296404 159.82329301 -91.97628384 156.3475742 -95.70703125 152.59375 C-98.89556882 150.37752627 -102.25792719 149.75000143 -106 149 C-107.45573889 148.69014985 -108.91146794 148.38025346 -110.3671875 148.0703125 C-111.10291992 147.91691406 -111.83865234 147.76351562 -112.59667969 147.60546875 C-133.84601648 143.12425413 -133.84601648 143.12425413 -141.6171875 135.390625 C-143.59136608 131.97763831 -143.56858856 128.5959356 -143.6875 124.75 C-143.72166016 124.00492188 -143.75582031 123.25984375 -143.79101562 122.4921875 C-143.87314054 120.66197508 -143.93825653 118.83101331 -144 117 C-144.87398437 117.10828125 -144.87398437 117.10828125 -145.765625 117.21875 C-165.19521912 119.41832669 -165.19521912 119.41832669 -174 114 C-172.86280581 110.58841744 -171.95657056 109.88145399 -169 108 C-168.34 108 -167.68 108 -167 108 C-167.433125 107.40832031 -167.86625 106.81664062 -168.3125 106.20703125 C-169.1478125 105.02173828 -169.1478125 105.02173828 -170 103.8125 C-170.556875 103.03519531 -171.11375 102.25789063 -171.6875 101.45703125 C-173.151369 98.71663363 -173.26080213 97.05899163 -173 94 C-172.38253906 94.0721875 -171.76507813 94.144375 -171.12890625 94.21875 C-159.51593234 95.49140468 -147.5879593 95.89644223 -137 90 C-137.31453125 89.19820313 -137.6290625 88.39640625 -137.953125 87.5703125 C-140.48749993 80.83742489 -142.60658726 74.14701532 -144.1875 67.125 C-144.34186523 66.4561377 -144.49623047 65.78727539 -144.65527344 65.09814453 C-147.5963674 51.44215401 -148.3960697 37.79319426 -148.42553711 23.86791992 C-148.43769048 21.14481972 -148.48730643 18.42381402 -148.53710938 15.70117188 C-148.54654958 13.96094837 -148.55379604 12.22071125 -148.55859375 10.48046875 C-148.57812607 9.67119431 -148.59765839 8.86191986 -148.61778259 8.02812195 C-148.59936523 5.75854492 -148.59936523 5.75854492 -148 2 C-145.05961186 -0.5720002 -142.1613171 -1.4138871 -138.359375 -2.0625 C-137.46822998 -2.2181543 -136.57708496 -2.37380859 -135.65893555 -2.53417969 C-134.69898682 -2.68790039 -133.73903809 -2.84162109 -132.75 -3 C-131.72624268 -3.16661133 -130.70248535 -3.33322266 -129.64770508 -3.50488281 C-127.49169072 -3.84832163 -125.33450302 -4.18446623 -123.17626953 -4.51367188 C-121.16764481 -4.82121841 -119.16052679 -5.13892741 -117.15576172 -5.47070312 C-79.07770016 -11.71013013 -37.34625278 -9.46198957 0 0 Z M-76 122 C-76 122.33 -76 122.66 -76 123 C-74.35 123 -72.7 123 -71 123 C-71 122.67 -71 122.34 -71 122 C-72.65 122 -74.3 122 -76 122 Z " fill="#0A3062" transform="translate(174,23)"/>
<path d="M0 0 C2.09395528 2.09395528 1.18814123 6.6566739 1.203125 9.546875 C1.21009399 10.42149887 1.21706299 11.29612274 1.22424316 12.19725037 C1.2417669 15.04821482 1.24797557 17.89898375 1.25 20.75 C1.25100708 21.71306061 1.25201416 22.67612122 1.25305176 23.66836548 C1.24334801 37.29856897 1.04839161 50.65091758 -2 64 C-2.1551709 64.68932617 -2.3103418 65.37865234 -2.47021484 66.08886719 C-4.43874361 74.55293889 -7.13015918 82.80263552 -10 91 C2.5332038 94.52250646 13.00222034 95.70462684 26 94 C26.36539443 98.28577219 25.48423598 100.34492062 23 103.8125 C22.443125 104.60269531 21.88625 105.39289063 21.3125 106.20703125 C20.879375 106.79871094 20.44625 107.39039063 20 108 C20.598125 108.28875 21.19625 108.5775 21.8125 108.875 C24 110 24 110 27 112 C26.375 113.875 26.375 113.875 25 116 C19.51279257 118.56544763 14.04262942 118.22924008 8.125 118.125 C6.66320312 118.11146484 6.66320312 118.11146484 5.171875 118.09765625 C2.78099272 118.07421623 0.39062739 118.04140442 -2 118 C-3.78286936 121.56573871 -3.29559415 125.80124379 -3.42578125 129.73828125 C-4.26274325 134.49245314 -6.42145378 136.82712912 -10.234375 139.66015625 C-19.31195591 144.72048474 -28.88817014 146.84480685 -38.99609375 148.76953125 C-40.85427734 149.13111328 -40.85427734 149.13111328 -42.75 149.5 C-43.85859375 149.6959375 -44.9671875 149.891875 -46.109375 150.09375 C-49.39442611 151.12365791 -50.71752848 152.49133761 -53 155 C-53.66 155 -54.32 155 -55 155 C-55 155.66 -55 156.32 -55 157 C-59.47058824 161 -59.47058824 161 -62 161 C-62 161.66 -62 162.32 -62 163 C-64.046875 164.76171875 -64.046875 164.76171875 -66.75 166.6875 C-67.63171875 167.33074219 -68.5134375 167.97398437 -69.421875 168.63671875 C-72 170 -72 170 -73.94140625 169.9921875 C-76.98531213 168.52510573 -79.55359896 166.52522165 -82.1875 164.4375 C-83.05024536 163.76847656 -83.05024536 163.76847656 -83.93041992 163.0859375 C-88.09296404 159.82329301 -91.97628384 156.3475742 -95.70703125 152.59375 C-98.89556882 150.37752627 -102.25792719 149.75000143 -106 149 C-107.45573889 148.69014985 -108.91146794 148.38025346 -110.3671875 148.0703125 C-111.10291992 147.91691406 -111.83865234 147.76351562 -112.59667969 147.60546875 C-133.84601648 143.12425413 -133.84601648 143.12425413 -141.6171875 135.390625 C-143.59136608 131.97763831 -143.56858856 128.5959356 -143.6875 124.75 C-143.72166016 124.00492188 -143.75582031 123.25984375 -143.79101562 122.4921875 C-143.87314054 120.66197508 -143.93825653 118.83101331 -144 117 C-144.87398437 117.10828125 -144.87398437 117.10828125 -145.765625 117.21875 C-165.19521912 119.41832669 -165.19521912 119.41832669 -174 114 C-172.86280581 110.58841744 -171.95657056 109.88145399 -169 108 C-168.34 108 -167.68 108 -167 108 C-167.433125 107.40832031 -167.86625 106.81664062 -168.3125 106.20703125 C-169.1478125 105.02173828 -169.1478125 105.02173828 -170 103.8125 C-170.556875 103.03519531 -171.11375 102.25789063 -171.6875 101.45703125 C-173.151369 98.71663363 -173.26080213 97.05899163 -173 94 C-172.38253906 94.0721875 -171.76507813 94.144375 -171.12890625 94.21875 C-159.51593234 95.49140468 -147.5879593 95.89644223 -137 90 C-137.31453125 89.19820313 -137.6290625 88.39640625 -137.953125 87.5703125 C-140.48749993 80.83742489 -142.60658726 74.14701532 -144.1875 67.125 C-144.34186523 66.4561377 -144.49623047 65.78727539 -144.65527344 65.09814453 C-147.5963674 51.44215401 -148.3960697 37.79319426 -148.42553711 23.86791992 C-148.43769048 21.14481972 -148.48730643 18.42381402 -148.53710938 15.70117188 C-148.54654958 13.96094837 -148.55379604 12.22071125 -148.55859375 10.48046875 C-148.57812607 9.67119431 -148.59765839 8.86191986 -148.61778259 8.02812195 C-148.59936523 5.75854492 -148.59936523 5.75854492 -148 2 C-145.05961186 -0.5720002 -142.1613171 -1.4138871 -138.359375 -2.0625 C-137.46822998 -2.2181543 -136.57708496 -2.37380859 -135.65893555 -2.53417969 C-134.69898682 -2.68790039 -133.73903809 -2.84162109 -132.75 -3 C-131.72624268 -3.16661133 -130.70248535 -3.33322266 -129.64770508 -3.50488281 C-127.49169072 -3.84832163 -125.33450302 -4.18446623 -123.17626953 -4.51367188 C-121.16764481 -4.82121841 -119.16052679 -5.13892741 -117.15576172 -5.47070312 C-79.07770016 -11.71013013 -37.34625278 -9.46198957 0 0 Z M-138 10 C-139.46758788 43.82436069 -139.46758788 43.82436069 -132.03125 76.4296875 C-130.82883155 79.4266244 -129.95516641 82.45976434 -129.0625 85.5625 C-127.28231593 91.42948796 -124.93739457 96.63311771 -122 102 C-121.50113281 102.94101563 -121.00226563 103.88203125 -120.48828125 104.8515625 C-119.02341949 107.58941495 -117.55470663 110.31206732 -116 113 C-115.43023437 114.0725 -114.86046875 115.145 -114.2734375 116.25 C-112.19529986 119.29737475 -112.19529986 119.29737475 -108.57421875 119.953125 C-107.29160156 120.05109375 -106.00898437 120.1490625 -104.6875 120.25 C-100.84498735 120.57636103 -97.40405914 120.87530003 -93.71386719 122.01416016 C-89.87922863 123.03205856 -86.71120131 123.2292807 -82.75390625 123.1953125 C-81.76994118 123.19106766 -81.76994118 123.19106766 -80.76609802 123.18673706 C-78.69803591 123.17565984 -76.63042827 123.15058063 -74.5625 123.125 C-73.14909485 123.11495402 -71.73568283 123.10583102 -70.32226562 123.09765625 C-66.88136606 123.07576184 -63.44072748 123.04132051 -60 123 C-60 122.67 -60 122.34 -60 122 C-58.91114502 121.93437866 -58.91114502 121.93437866 -57.80029297 121.86743164 C-54.48722059 121.64287484 -51.18287997 121.35340316 -47.875 121.0625 C-46.73289062 120.99482422 -45.59078125 120.92714844 -44.4140625 120.85742188 C-38.15979961 120.34632192 -38.15979961 120.34632192 -32.99707031 117.12866211 C-31.42876901 114.81939026 -30.19088959 112.52262329 -29 110 C-28.29292248 108.72716615 -27.58468051 107.45497812 -26.875 106.18359375 C-26.24134718 104.93926438 -25.61646 103.69043598 -25 102.4375 C-24.66460205 101.76058105 -24.3292041 101.08366211 -23.98364258 100.38623047 C-20.4566985 93.11426729 -17.63562833 85.6333764 -15 78 C-14.53980469 76.69869141 -14.53980469 76.69869141 -14.0703125 75.37109375 C-9.11634792 60.27937692 -8.59154529 45.16419434 -8.8125 29.4375 C-8.8275965 27.53972434 -8.84127599 25.64193686 -8.85351562 23.74414062 C-8.88607646 19.16246028 -8.93757484 14.58136672 -9 10 C-29.89559637 4.34495377 -51.08972051 3.45574902 -72.625 3.5625 C-73.84936768 3.56421204 -75.07373535 3.56592407 -76.33520508 3.56768799 C-97.42128362 3.61831276 -117.50424174 4.79986803 -138 10 Z " fill="#E9B041" transform="translate(174,23)"/>
<path d="M0 0 C14.19 0 28.38 0 43 0 C43.495 2.475 43.495 2.475 44 5 C48.95 5 53.9 5 59 5 C60 9 60 9 59.07910156 10.79467773 C57.52042665 13.98008735 57.7404989 16.75450826 57.734375 20.28515625 C57.73246155 20.98265488 57.7305481 21.6801535 57.72857666 22.39878845 C57.72721927 23.86880862 57.73088451 25.33884095 57.73925781 26.80883789 C57.74998036 29.05837882 57.73933966 31.30712416 57.7265625 33.55664062 C57.72788386 34.98698093 57.73044576 36.41732073 57.734375 37.84765625 C57.73775879 39.7968396 57.73775879 39.7968396 57.74121094 41.78540039 C57.75006973 45.15176037 57.75006973 45.15176037 60 48 C60 49.32 60 50.64 60 52 C52.08 52.495 52.08 52.495 44 53 C44 54.32 44 55.64 44 57 C29.15 57 14.3 57 -1 57 C-0.67 55.35 -0.34 53.7 0 52 C-5.28 52 -10.56 52 -16 52 C-15.67 49.69 -15.34 47.38 -15 45 C-14.91148397 42.53374291 -14.86940892 40.06550029 -14.8671875 37.59765625 C-14.86623077 36.91626083 -14.86527405 36.23486542 -14.86428833 35.53282166 C-14.86361246 34.10171414 -14.86542502 32.67060345 -14.86962891 31.23950195 C-14.87497729 29.0717059 -14.86966794 26.90411778 -14.86328125 24.73632812 C-14.86041166 18.08604631 -14.92008037 11.57379647 -16 5 C-11.05 5 -6.1 5 -1 5 C-0.67 3.35 -0.34 1.7 0 0 Z " fill="#EDB344" transform="translate(79,75)"/>
<path d="M0 0 C2.83302285 2.83302285 3.28235318 4.00168202 4 8 C4.99 8.33 5.98 8.66 7 9 C7.33 8.01 7.66 7.02 8 6 C8.99 7.98 8.99 7.98 10 10 C8.74087558 10.93268475 7.46664399 11.84496642 6.1875 12.75 C5.47980469 13.26046875 4.77210938 13.7709375 4.04296875 14.296875 C-4.99493238 19.35531517 -14.93367025 21.20876629 -25.00976562 23.06640625 C-26.4725293 23.35837891 -26.4725293 23.35837891 -27.96484375 23.65625 C-28.8374585 23.81931641 -29.71007324 23.98238281 -30.60913086 24.15039062 C-33.52105853 25.18516121 -34.90158295 26.77904558 -37 29 C-37.66 29 -38.32 29 -39 29 C-39 29.66 -39 30.32 -39 31 C-43.47058824 35 -43.47058824 35 -46 35 C-46 35.66 -46 36.32 -46 37 C-48.046875 38.76171875 -48.046875 38.76171875 -50.75 40.6875 C-51.63171875 41.33074219 -52.5134375 41.97398437 -53.421875 42.63671875 C-56 44 -56 44 -57.94140625 43.9921875 C-60.98531213 42.52510573 -63.55359896 40.52522165 -66.1875 38.4375 C-67.05024536 37.76847656 -67.05024536 37.76847656 -67.93041992 37.0859375 C-72.09296404 33.82329301 -75.97628384 30.3475742 -79.70703125 26.59375 C-82.89590768 24.37729074 -86.25863493 23.75434436 -90 23 C-91.47928342 22.67892285 -92.95844855 22.35730028 -94.4375 22.03515625 C-96.72020586 21.54684546 -99.00332215 21.06181119 -101.2890625 20.58789062 C-106.41247744 19.48309926 -111.1301611 17.94240165 -116 16 C-112.90279155 15.12159004 -111.09354597 15.00564594 -108 16 C-107.06619039 11.46859347 -107.06619039 11.46859347 -108 7 C-110.01508358 6.26676204 -110.01508358 6.26676204 -112 6 C-110.75 4 -110.75 4 -109 2 C-107.68 2 -106.36 2 -105 2 C-104.67 2.99 -104.34 3.98 -104 5 C-103.67 4.34 -103.34 3.68 -103 3 C-102.4225 3.350625 -101.845 3.70125 -101.25 4.0625 C-98.64198224 5.14917407 -97.60582371 4.93065133 -95 4 C-95 5.32 -95 6.64 -95 8 C-94.34 8 -93.68 8 -93 8 C-92.67 7.01 -92.34 6.02 -92 5 C-91.08476563 5.0721875 -90.16953125 5.144375 -89.2265625 5.21875 C-88.03804687 5.3115625 -86.84953125 5.404375 -85.625 5.5 C-83.84996094 5.63921875 -83.84996094 5.63921875 -82.0390625 5.78125 C-80.36213157 5.90195454 -78.68126944 6 -77 6 C-75.66216607 6.31478446 -74.32796291 6.64587656 -73 7 C-73.33 7.66 -73.66 8.32 -74 9 C-74.99 8.67 -75.98 8.34 -77 8 C-77 9.32 -77 10.64 -77 12 C-75.02 11.67 -73.04 11.34 -71 11 C-70.67 9.68 -70.34 8.36 -70 7 C-69.01 7 -68.02 7 -67 7 C-66.505 8.485 -66.505 8.485 -66 10 C-65.67 9.01 -65.34 8.02 -65 7 C-64.34 7 -63.68 7 -63 7 C-63 8.98 -63 10.96 -63 13 C-62.01 13 -61.02 13 -60 13 C-60 11.02 -60 9.04 -60 7 C-56.58281006 5.94602334 -53.49962841 5.9293754 -49.9375 6 C-46.53950501 6.06720386 -44.23902028 6.07967343 -41 5 C-41 4.01 -41 3.02 -41 2 C-39.35 2 -37.7 2 -36 2 C-36.33 2.66 -36.66 3.32 -37 4 C-33.37 4.33 -29.74 4.66 -26 5 C-25.505 7.475 -25.505 7.475 -25 10 C-24.34 10 -23.68 10 -23 10 C-23 8.35 -23 6.7 -23 5 C-22.34 5 -21.68 5 -21 5 C-20.505 6.98 -20.505 6.98 -20 9 C-19.34 9 -18.68 9 -18 9 C-18 9.99 -18 10.98 -18 12 C-16.50256881 10.50256881 -16.66797307 9.01175761 -16.4375 6.9375 C-16.293125 5.638125 -16.14875 4.33875 -16 3 C-15.01 3 -14.02 3 -13 3 C-12.505 3.99 -12.505 3.99 -12 5 C-11.67 4.01 -11.34 3.02 -11 2 C-9.2578125 1.015625 -9.2578125 1.015625 -7.125 0.25 C-6.07699219 -0.14445313 -6.07699219 -0.14445313 -5.0078125 -0.546875 C-3 -1 -3 -1 0 0 Z " fill="#DFA945" transform="translate(158,149)"/>
<path d="M0 0 C2.09395528 2.09395528 1.18814123 6.6566739 1.203125 9.546875 C1.21009399 10.42149887 1.21706299 11.29612274 1.22424316 12.19725037 C1.2417669 15.04821482 1.24797557 17.89898375 1.25 20.75 C1.25100708 21.71306061 1.25201416 22.67612122 1.25305176 23.66836548 C1.24334801 37.29856897 1.04839161 50.65091758 -2 64 C-2.1551709 64.68932617 -2.3103418 65.37865234 -2.47021484 66.08886719 C-3.48361376 70.44617263 -4.6857098 74.72240379 -6 79 C-6.35449219 80.17175781 -6.70898438 81.34351562 -7.07421875 82.55078125 C-8.99443146 88.62550623 -8.99443146 88.62550623 -10 91 C-10.99 91.495 -10.99 91.495 -12 92 C-12.79068076 93.74423584 -13.50718869 95.52232927 -14.1875 97.3125 C-16.06082161 101.92120272 -18.1004311 106.327499 -20.5 110.6875 C-21.0465625 111.68136719 -21.593125 112.67523438 -22.15625 113.69921875 C-24 116 -24 116 -26.71875 116.83203125 C-27.4715625 116.88746094 -28.224375 116.94289063 -29 117 C-28.50371094 116.11441406 -28.00742188 115.22882813 -27.49609375 114.31640625 C-22.25118193 104.81187212 -17.84673036 95.14902502 -14 85 C-13.75620605 84.360625 -13.51241211 83.72125 -13.26123047 83.0625 C-6.57696506 65.22540538 -5.51714733 47.79302816 -5.3125 28.9375 C-5.27923759 26.79880843 -5.24474013 24.66013571 -5.20898438 22.52148438 C-5.12512159 17.34776242 -5.05784125 12.17407559 -5 7 C-6.23661377 6.84909912 -7.47322754 6.69819824 -8.74731445 6.54272461 C-11.52643957 6.19505211 -14.28741117 5.82157291 -17.04296875 5.31640625 C-17.71682617 5.19442871 -18.39068359 5.07245117 -19.08496094 4.94677734 C-19.77879883 4.81996582 -20.47263672 4.6931543 -21.1875 4.5625 C-22.69649204 4.29488101 -24.20560786 4.02795912 -25.71484375 3.76171875 C-28.23020785 3.31679058 -30.74252925 2.86183429 -33.25390625 2.39453125 C-66.06328613 -3.29470933 -99.77814473 -0.14269407 -132.2878418 5.55102539 C-135.51842006 6.08582001 -138.75717773 6.54601987 -142 7 C-141.88008889 12.01313281 -141.7557705 17.02613186 -141.62768555 22.0390625 C-141.58486108 23.73792694 -141.54315967 25.43682013 -141.50268555 27.13574219 C-141.34201857 47.05124137 -141.34201857 47.05124137 -138.1875 66.625 C-138.01009277 67.34026855 -137.83268555 68.05553711 -137.64990234 68.79248047 C-136.08079514 74.97595599 -134.21928145 81.01725174 -132 87 C-131.56945312 88.16917969 -131.13890625 89.33835937 -130.6953125 90.54296875 C-127.19422356 99.77914037 -122.8148479 108.38459957 -118 117 C-120.24609375 116.90625 -120.24609375 116.90625 -123 116 C-124.61120725 113.81571903 -125.82734715 111.88080633 -127.0625 109.5 C-127.40539062 108.86795654 -127.74828125 108.23591309 -128.1015625 107.5847168 C-135 94.71408162 -135 94.71408162 -135 90 C-135.66 90 -136.32 90 -137 90 C-139.94880869 82.48295489 -142.41359023 75.00425942 -144.1875 67.125 C-144.34186523 66.4561377 -144.49623047 65.78727539 -144.65527344 65.09814453 C-147.5963674 51.44215401 -148.3960697 37.79319426 -148.42553711 23.86791992 C-148.43769048 21.14481972 -148.48730643 18.42381402 -148.53710938 15.70117188 C-148.54654958 13.96094837 -148.55379604 12.22071125 -148.55859375 10.48046875 C-148.58789223 9.26655708 -148.58789223 9.26655708 -148.61778259 8.02812195 C-148.59936523 5.75854492 -148.59936523 5.75854492 -148 2 C-145.05961186 -0.5720002 -142.1613171 -1.4138871 -138.359375 -2.0625 C-137.46822998 -2.2181543 -136.57708496 -2.37380859 -135.65893555 -2.53417969 C-134.69898682 -2.68790039 -133.73903809 -2.84162109 -132.75 -3 C-131.72624268 -3.16661133 -130.70248535 -3.33322266 -129.64770508 -3.50488281 C-127.49169072 -3.84832163 -125.33450302 -4.18446623 -123.17626953 -4.51367188 C-121.16764481 -4.82121841 -119.16052679 -5.13892741 -117.15576172 -5.47070312 C-79.07770016 -11.71013013 -37.34625278 -9.46198957 0 0 Z " fill="#1F3B5F" transform="translate(174,23)"/>
<path d="M0 0 C6.6 0 13.2 0 20 0 C20 0.66 20 1.32 20 2 C19.34 2 18.68 2 18 2 C18 3.32 18 4.64 18 6 C18.33 5.34 18.66 4.68 19 4 C19.99 4 20.98 4 22 4 C24.62776261 7.94164391 24.28748581 11.32916531 24.265625 15.90234375 C24.26753845 16.77645401 24.2694519 17.65056427 24.27142334 18.55116272 C24.27278412 20.39958992 24.26909513 22.24802672 24.26074219 24.09643555 C24.25005394 26.92323344 24.26063439 29.74939395 24.2734375 32.57617188 C24.27211563 34.37239723 24.26955268 36.1686222 24.265625 37.96484375 C24.26967346 38.80973862 24.27372192 39.65463348 24.27789307 40.52513123 C24.27158875 41.3159761 24.26528442 42.10682098 24.25878906 42.92163086 C24.25640228 43.96062782 24.25640228 43.96062782 24.25396729 45.02061462 C23.95630986 47.34051479 23.14193891 48.97443812 22 51 C23.98 51.33 25.96 51.66 28 52 C27.97381592 50.74340576 27.94763184 49.48681152 27.9206543 48.19213867 C27.83023252 43.53509286 27.77277993 38.87812475 27.7253418 34.22045898 C27.70017929 32.20372475 27.6660457 30.18708187 27.62280273 28.1706543 C27.56222675 25.2736968 27.53380831 22.37794339 27.51171875 19.48046875 C27.48591232 18.57725388 27.4601059 17.674039 27.43351746 16.74345398 C27.43246119 14.39224638 27.48018995 12.29282097 28 10 C30.28051758 7.8449707 30.28051758 7.8449707 33 7 C34.32 7.33 35.64 7.66 37 8 C37 21.2 37 34.4 37 48 C37.99 48 38.98 48 40 48 C40.495 50.97 40.495 50.97 41 54 C27.47 54 13.94 54 0 54 C0 53.34 0 52.68 0 52 C1.98 52 3.96 52 6 52 C6 51.01 6 50.02 6 49 C4.68 48.67 3.36 48.34 2 48 C2.01571045 46.13867432 2.01571045 46.13867432 2.03173828 44.23974609 C2.06802755 39.62161155 2.09093298 35.00348954 2.10986328 30.38525391 C2.11990052 28.38913857 2.1335332 26.39303786 2.15087891 24.39697266 C2.17522735 21.52242413 2.18650605 18.64807059 2.1953125 15.7734375 C2.20563507 14.88570648 2.21595764 13.99797546 2.22659302 13.08334351 C2.22674408 12.24292511 2.22689514 11.40250671 2.22705078 10.53662109 C2.231492 9.80381927 2.23593323 9.07101746 2.24050903 8.31600952 C2.01384271 5.31970807 2.01384271 5.31970807 0 0 Z " fill="#EEB74F" transform="translate(80,77)"/>
<path d="M0 0 C1.27270752 0.00483398 2.54541504 0.00966797 3.85668945 0.01464844 C7.5922457 0.03816765 11.32719045 0.07647608 15.0625 0.125 C16.52913086 0.14385254 16.52913086 0.14385254 18.02539062 0.16308594 C36.97085892 0.50164463 55.75537182 3.25862579 74.0625 8.125 C74.13765048 14.36480185 74.19156613 20.60433009 74.22729492 26.84448242 C74.24221722 28.95943806 74.26256237 31.07436368 74.28881836 33.18920898 C74.49858701 50.54242363 73.37050214 66.25037633 67.375 82.6875 C67.03049805 83.6556665 66.68599609 84.62383301 66.33105469 85.62133789 C63.21479872 94.15290086 59.34303782 102.13046613 55.0625 110.125 C54.31209783 111.58175899 53.56732072 113.04142895 52.828125 114.50390625 C52.49071289 115.17107666 52.15330078 115.83824707 51.80566406 116.52563477 C50.99226801 117.98221419 50.99226801 117.98221419 51.0625 119.125 C47.5975 119.62 47.5975 119.62 44.0625 120.125 C44.55878906 119.3 45.05507812 118.475 45.56640625 117.625 C52.80617894 105.39308475 58.54648021 92.60945346 63.0625 79.125 C63.32675781 78.36703125 63.59101563 77.6090625 63.86328125 76.828125 C68.81529517 61.69273885 69.55611479 46.34810353 69.75 30.5625 C69.7832778 28.66469162 69.8177765 26.76690425 69.85351562 24.86914062 C69.93719571 20.28787944 70.00455299 15.70665593 70.0625 11.125 C69.46796524 11.06115112 68.87343048 10.99730225 68.26087952 10.93151855 C64.2630827 10.49599295 60.27847322 10.05514176 56.30859375 9.40625 C55.12040039 9.21482422 55.12040039 9.21482422 53.90820312 9.01953125 C53.11349609 8.88933594 52.31878906 8.75914063 51.5 8.625 C49.89474202 8.36328724 48.28927433 8.10285738 46.68359375 7.84375 C45.63836548 7.67262695 45.63836548 7.67262695 44.57202148 7.49804688 C37.1128712 6.38922485 29.88341517 5.92832652 22.34375 5.80859375 C21.24526733 5.78781265 20.14678467 5.76703156 19.01501465 5.74562073 C15.53090231 5.68061377 12.04671924 5.62146889 8.5625 5.5625 C6.19009706 5.51926825 3.81770109 5.47565252 1.4453125 5.43164062 C-4.34888513 5.32498294 -10.14315199 5.22312885 -15.9375 5.125 C-15.6075 4.465 -15.2775 3.805 -14.9375 3.125 C-18.5675 2.795 -22.1975 2.465 -25.9375 2.125 C-25.9375 1.795 -25.9375 1.465 -25.9375 1.125 C-17.27429237 0.25521197 -8.7040471 -0.0350287 0 0 Z " fill="#E0AD56" transform="translate(94.9375,21.875)"/>
<path d="M0 0 C6.875 1.875 6.875 1.875 8 3 C8.16796875 4.890625 8.16796875 4.890625 8.1875 7.25 C8.20167969 8.01828125 8.21585938 8.7865625 8.23046875 9.578125 C8 12 8 12 6.984375 14.31640625 C5.47819139 18.42254965 5.94770351 22.4153958 6.16601562 26.73632812 C6.22265625 28.69921875 6.22265625 28.69921875 6 32 C5.01 32.66 4.02 33.32 3 34 C2.67 33.34 2.34 32.68 2 32 C1.505 32.99 1.505 32.99 1 34 C-0.32 33.67 -1.64 33.34 -3 33 C-3.185625 32.0409375 -3.185625 32.0409375 -3.375 31.0625 C-3.58125 30.381875 -3.7875 29.70125 -4 29 C-4.66 28.67 -5.32 28.34 -6 28 C-5.505 27.505 -5.505 27.505 -5 27 C-6.7142289 25.76603959 -6.7142289 25.76603959 -9 25 C-11.57616923 25.83046584 -11.57616923 25.83046584 -14 27 C-14.99 27 -15.98 27 -17 27 C-17.33 28.32 -17.66 29.64 -18 31 C-18.33 30.01 -18.66 29.02 -19 28 C-19.99 28 -20.98 28 -22 28 C-22.33 30.64 -22.66 33.28 -23 36 C-22.34 36.33 -21.68 36.66 -21 37 C-21.99 37 -22.98 37 -24 37 C-24 36.01 -24 35.02 -24 34 C-24.66 34 -25.32 34 -26 34 C-26.33 32.68 -26.66 31.36 -27 30 C-27.66 30 -28.32 30 -29 30 C-29 31.65 -29 33.3 -29 35 C-29.66 35 -30.32 35 -31 35 C-31.33 33.35 -31.66 31.7 -32 30 C-32.495 30.185625 -32.99 30.37125 -33.5 30.5625 C-37.15081689 31.20139296 -40.33964724 30.54905291 -44 30 C-42.52413793 23.35862069 -42.52413793 23.35862069 -40.29296875 21.83203125 C-37.54472957 20.83479966 -34.96262816 20.43890724 -32.0625 20.0625 C-26.3417752 19.24250809 -20.76729727 18.1518645 -15.15625 16.76953125 C-13.06349187 16.25929195 -10.95826433 15.79758354 -8.84375 15.38671875 C-3.60677051 14.45621389 -3.60677051 14.45621389 0.34765625 11.25390625 C1.32921117 9.13317319 1.32921117 9.13317319 2 6 C1.01 6 0.02 6 -1 6 C-1.042721 4.33388095 -1.04063832 2.66617115 -1 1 C-0.67 0.67 -0.34 0.34 0 0 Z " fill="#EDB13C" transform="translate(164,124)"/>
<path d="M0 0 C4.26948732 0.47438748 8.1366358 1.31137631 12.25 2.5625 C20.87168075 4.98365692 29.22482219 4.15084299 38 3 C38.36539443 7.28577219 37.48423598 9.34492062 35 12.8125 C34.443125 13.60269531 33.88625 14.39289063 33.3125 15.20703125 C32.879375 15.79871094 32.44625 16.39039063 32 17 C32.598125 17.28875 33.19625 17.5775 33.8125 17.875 C36 19 36 19 39 21 C38.375 22.875 38.375 22.875 37 25 C28.8780551 28.39301046 19.5195644 27.58503524 11 26 C11.17789063 24.78763672 11.17789063 24.78763672 11.359375 23.55078125 C12.20759822 17.09023115 12.20759822 17.09023115 10.75 10.875 C6.53295722 7.99974356 2.0018321 7.57779785 -3 7 C-2.01 4.69 -1.02 2.38 0 0 Z " fill="#E1A846" transform="translate(162,114)"/>
<path d="M0 0 C1.77706209 2.66559313 2.87548273 5.0280615 4 8 C3.11248047 8.03867188 3.11248047 8.03867188 2.20703125 8.078125 C-3.04981899 8.45545193 -6.17748357 9.05802993 -10 13 C-11.51516221 16.03032442 -11.17028053 18.65114962 -11 22 C-10.1025173 24.83378132 -10.1025173 24.83378132 -9 27 C-28.82876712 29.64383562 -28.82876712 29.64383562 -38 24 C-36.86280581 20.58841744 -35.95657056 19.88145399 -33 18 C-32.34 18 -31.68 18 -31 18 C-31.433125 17.40832031 -31.86625 16.81664062 -32.3125 16.20703125 C-32.869375 15.41683594 -33.42625 14.62664062 -34 13.8125 C-34.556875 13.03519531 -35.11375 12.25789063 -35.6875 11.45703125 C-37.151369 8.71663363 -37.26080213 7.05899163 -37 4 C-36.07380859 4.10828125 -36.07380859 4.10828125 -35.12890625 4.21875 C-22.69467124 5.58140589 -11.72331091 4.99326205 0 0 Z " fill="#DEA94B" transform="translate(38,113)"/>
<path d="M0 0 C4.95 0 9.9 0 15 0 C16 3 16 3 15 6 C14.79424781 10.57565202 14.81419839 15.15368023 14.81469727 19.73339844 C14.81250802 21.99172736 14.79433231 24.2495698 14.77539062 26.5078125 C14.772457 27.94270666 14.770472 29.37760315 14.76953125 30.8125 C14.76336792 32.77123047 14.76336792 32.77123047 14.75708008 34.76953125 C14.74556012 38.14998322 14.74556012 38.14998322 17 41 C16.67 42.32 16.34 43.64 16 45 C10.39 44.67 4.78 44.34 -1 44 C-0.67 43.01 -0.34 42.02 0 41 C0.08518867 38.19573548 0.1158852 35.4170365 0.09765625 32.61328125 C0.0962413 31.79627243 0.09482635 30.97926361 0.09336853 30.13749695 C0.08777294 27.52912732 0.07522129 24.92084366 0.0625 22.3125 C0.05748443 20.54362103 0.05292162 18.77474072 0.04882812 17.00585938 C0.03780496 12.67053981 0.02054338 8.33528448 0 4 C1.65 4 3.3 4 5 4 C5 3.01 5 2.02 5 1 C3.35 1.33 1.7 1.66 0 2 C0 1.34 0 0.68 0 0 Z " fill="#EECB82" transform="translate(122,82)"/>
<path d="M0 0 C0 13.2 0 26.4 0 40 C0.99 40 1.98 40 3 40 C3.33 41.98 3.66 43.96 4 46 C-2.6 46 -9.2 46 -16 46 C-16 45.34 -16 44.68 -16 44 C-12.86650268 42.95550089 -12.01031744 43.06576355 -9 44 C-9.02618408 42.74340576 -9.05236816 41.48681152 -9.0793457 40.19213867 C-9.16976748 35.53509286 -9.22722007 30.87812475 -9.2746582 26.22045898 C-9.29982071 24.20372475 -9.3339543 22.18708187 -9.37719727 20.1706543 C-9.43777325 17.2736968 -9.46619169 14.37794339 -9.48828125 11.48046875 C-9.51408768 10.57725388 -9.5398941 9.674039 -9.56648254 8.74345398 C-9.56753881 6.39224638 -9.51981005 4.29282097 -9 2 C-5.58341806 -1.22858032 -4.62855522 -1.15713881 0 0 Z " fill="#F0B33A" transform="translate(117,85)"/>
<path d="M0 0 C0.33 0 0.66 0 1 0 C2.25 7.625 2.25 7.625 0 11 C-0.19553867 13.55565355 -0.28014298 15.99948697 -0.265625 18.5546875 C-0.26849518 19.66253098 -0.26849518 19.66253098 -0.27142334 20.79275513 C-0.27278349 22.354516 -0.26909889 23.91628824 -0.26074219 25.47802734 C-0.25007031 27.85931066 -0.26062708 30.23983436 -0.2734375 32.62109375 C-0.27211528 34.14062666 -0.26955159 35.66015909 -0.265625 37.1796875 C-0.26967346 37.88817841 -0.27372192 38.59666931 -0.27789307 39.32662964 C-0.23762419 43.61037562 0.34587176 45.86467941 2 50 C-3.28 50 -8.56 50 -14 50 C-14 49.34 -14 48.68 -14 48 C-12.02 48 -10.04 48 -8 48 C-8.01047363 46.98574951 -8.02094727 45.97149902 -8.03173828 44.92651367 C-8.06793589 41.16385426 -8.09089956 37.40121024 -8.10986328 33.63842773 C-8.11992142 32.00982068 -8.13356958 30.38123168 -8.15087891 28.75268555 C-8.17513574 26.41190128 -8.18648483 24.07135576 -8.1953125 21.73046875 C-8.20563507 21.00224411 -8.21595764 20.27401947 -8.22659302 19.52372742 C-8.22742249 15.78724931 -8.12883296 14.19324944 -6 11 C-6.66 11 -7.32 11 -8 11 C-8 10.01 -8 9.02 -8 8 C-9.98 8 -11.96 8 -14 8 C-14.33 6.68 -14.66 5.36 -15 4 C-10.05 4 -5.1 4 0 4 C0 2.68 0 1.36 0 0 Z " fill="#EEB038" transform="translate(78,76)"/>
<path d="M0 0 C1.22589844 0.01353516 1.22589844 0.01353516 2.4765625 0.02734375 C3.41628906 0.04474609 3.41628906 0.04474609 4.375 0.0625 C5.6680106 2.31173704 6.95944977 4.56185185 8.25 6.8125 C8.61480469 7.44671875 8.97960937 8.0809375 9.35546875 8.734375 C12.2858238 13.84917654 12.2858238 13.84917654 13.37109375 16.4453125 C14.2574878 18.22635595 14.2574878 18.22635595 16.23046875 18.8203125 C17.00003906 18.94148438 17.76960938 19.06265625 18.5625 19.1875 C19.449375 19.33445313 20.33625 19.48140625 21.25 19.6328125 C26.08221228 20.29724169 30.91777934 20.92711593 35.76171875 21.5 C39.45949455 22.07565375 42.80524119 22.96270268 46.375 24.0625 C46.375 24.3925 46.375 24.7225 46.375 25.0625 C38.78500377 25.29422753 31.70602289 24.71771388 24.25 23.3125 C22.86361328 23.07660156 22.86361328 23.07660156 21.44921875 22.8359375 C13.929332 21.45711482 7.43327111 19.17976461 1.125 14.8125 C-1.78478437 12.61510376 -1.78478437 12.61510376 -6.625 13.0625 C-6.295 16.3625 -5.965 19.6625 -5.625 23.0625 C-9.09889846 18.89382184 -11.35891265 16.11517382 -12.0625 10.6875 C-11.48194294 5.8771701 -10.01107407 4.44857407 -6.625 1.0625 C-4.21954362 -0.14022819 -2.67503047 -0.03821472 0 0 Z " fill="#EAB042" transform="translate(37.625,120.9375)"/>
<path d="M0 0 C2.83302285 2.83302285 3.28235318 4.00168202 4 8 C4.99 8.33 5.98 8.66 7 9 C7.33 8.01 7.66 7.02 8 6 C8.66 7.32 9.32 8.64 10 10 C-1.10182872 18.22357683 -12.64210361 20.78765079 -26 23 C-26 22.34 -26 21.68 -26 21 C-26.66 20.67 -27.32 20.34 -28 20 C-23.05738183 18.84672243 -18.04338661 18.46027023 -13 18 C-13.66 15.69 -14.32 13.38 -15 11 C-15.66 11 -16.32 11 -17 11 C-16.67 8.36 -16.34 5.72 -16 3 C-15.01 3 -14.02 3 -13 3 C-12.67 3.66 -12.34 4.32 -12 5 C-11.67 4.01 -11.34 3.02 -11 2 C-9.2578125 1.015625 -9.2578125 1.015625 -7.125 0.25 C-6.42632812 -0.01296875 -5.72765625 -0.2759375 -5.0078125 -0.546875 C-3 -1 -3 -1 0 0 Z " fill="#D6A445" transform="translate(158,149)"/>
<path d="M0 0 C6.60957042 -0.13502697 9.79228295 0.11305465 14.875 4.6875 C16.5827328 8.19783965 15.92692607 11.34763458 15 15 C14.505 16.093125 14.01 17.18625 13.5 18.3125 C11.52390499 23.17040024 11.27263049 27.80121866 11 33 C10.67 33 10.34 33 10 33 C9.945652 30.9377952 9.90705039 28.87517184 9.875 26.8125 C9.85179687 25.66394531 9.82859375 24.51539063 9.8046875 23.33203125 C9.99791082 20.03564134 10.73569892 18.00271507 12 15 C12.23869189 12.56206486 12.23869189 12.56206486 12.125 10.1875 C12.10695312 9.39730469 12.08890625 8.60710937 12.0703125 7.79296875 C12.04710937 7.20128906 12.02390625 6.60960938 12 6 C9.525 5.505 9.525 5.505 7 5 C7 4.34 7 3.68 7 3 C6.34 3.33 5.68 3.66 5 4 C4.34444881 6.52733235 4.34444881 6.52733235 4 9 C4.99 9 5.98 9 7 9 C6.25 14.75 6.25 14.75 4 17 C0.41724252 18.27107575 -3.31201532 19.08733788 -7 20 C-7.6717627 20.16822266 -8.34352539 20.33644531 -9.03564453 20.50976562 C-39.51634969 28.1040523 -39.51634969 28.1040523 -49 23 C-48.10804932 22.92483154 -47.21609863 22.84966309 -46.29711914 22.7722168 C-42.94712003 22.48458951 -39.59829371 22.18705822 -36.24975586 21.88305664 C-34.80804192 21.75415689 -33.36598164 21.62906592 -31.92358398 21.50805664 C-19.94072043 21.02897075 -19.94072043 21.02897075 -9 17 C-6.77543211 14.32132227 -5.36183052 11.47508453 -3.9375 8.3125 C-3.54884766 7.51521484 -3.16019531 6.71792969 -2.75976562 5.89648438 C-1.81271238 3.94391781 -0.90250117 1.97355458 0 0 Z " fill="#E8B045" transform="translate(159,121)"/>
<path d="M0 0 C3.54962948 -0.58190647 5.55758016 -0.82717139 9 0 C12.09461055 2.28622248 14.72076466 4.78287998 17.421875 7.51953125 C21.72936777 11.73695286 21.72936777 11.73695286 27.390625 13.03125 C31.13767993 11.55037799 33.76605292 9.16208313 36.75 6.5 C37.33910156 5.98824219 37.92820313 5.47648438 38.53515625 4.94921875 C41.32478654 2.53674918 41.32478654 2.53674918 44 0 C45.68608966 -0.07205511 47.37500659 -0.08386068 49.0625 -0.0625 C49.98160156 -0.05347656 50.90070313 -0.04445312 51.84765625 -0.03515625 C52.55792969 -0.02355469 53.26820312 -0.01195312 54 0 C51.11912454 2.40072955 48.43595166 4.47291037 45 6 C45 6.66 45 7.32 45 8 C40.52941176 12 40.52941176 12 38 12 C38 12.66 38 13.32 38 14 C35.953125 15.76171875 35.953125 15.76171875 33.25 17.6875 C32.36828125 18.33074219 31.4865625 18.97398437 30.578125 19.63671875 C28 21 28 21 26.05859375 20.9921875 C23.01494484 19.52522958 20.44539889 17.52625875 17.8125 15.4375 C17.24168701 14.99148437 16.67087402 14.54546875 16.08276367 14.0859375 C10.47985612 9.66842679 5.04761446 5.04761446 0 0 Z " fill="#263C5E" transform="translate(74,172)"/>
<path d="M0 0 C0.33 0.99 0.66 1.98 1 3 C2.98 3 4.96 3 7 3 C7 3.99 7 4.98 7 6 C7.66 6 8.32 6 9 6 C8.67 6.99 8.34 7.98 8 9 C7.84677641 11.58330229 7.74293111 14.14492239 7.68359375 16.73046875 C7.66281265 17.48088943 7.64203156 18.23131012 7.62062073 19.00447083 C7.55530074 21.39872184 7.49632208 23.79308139 7.4375 26.1875 C7.39429807 27.81186013 7.35068324 29.43620933 7.30664062 31.06054688 C7.19963737 35.04025371 7.09832063 39.02006958 7 43 C5.02 43 3.04 43 1 43 C1 43.66 1 44.32 1 45 C6.61 45 12.22 45 18 45 C17.67 46.65 17.34 48.3 17 50 C23.6 50 30.2 50 37 50 C37.33 49.01 37.66 48.02 38 47 C38 47.99 38 48.98 38 50 C44.6 50 51.2 50 58 50 C58.495 49.01 58.495 49.01 59 48 C59 48.99 59 49.98 59 51 C44.48 51 29.96 51 15 51 C15.33 49.35 15.66 47.7 16 46 C10.72 46 5.44 46 0 46 C0.33 43.69 0.66 41.38 1 39 C1.08854703 36.52201963 1.13059181 34.04206092 1.1328125 31.5625 C1.13376923 30.87873291 1.13472595 30.19496582 1.13571167 29.49047852 C1.13638746 28.05517484 1.13457544 26.61986799 1.13037109 25.18457031 C1.12501423 23.00578858 1.13033658 20.82721294 1.13671875 18.6484375 C1.13605786 17.24479122 1.13477648 15.84114506 1.1328125 14.4375 C1.13168457 13.17808594 1.13055664 11.91867188 1.12939453 10.62109375 C1.00053336 7.01492602 0.57666836 3.55965295 0 0 Z " fill="#EDDEBD" transform="translate(63,81)"/>
<path d="M0 0 C6.6 0 13.2 0 20 0 C20 0.33 20 0.66 20 1 C13.73 1 7.46 1 1 1 C1.99 2.98 2.98 4.96 4 7 C4.36076355 9.31600952 4.36076355 9.31600952 4.34057617 11.53662109 C4.34034958 12.37703949 4.34012299 13.21745789 4.33988953 14.08334351 C4.32440567 14.97107452 4.30892181 15.85880554 4.29296875 16.7734375 C4.28872391 17.6971817 4.28447906 18.6209259 4.28010559 19.57266235 C4.26338673 22.5070783 4.22574716 25.44079356 4.1875 28.375 C4.17244438 30.37108379 4.15875751 32.36717841 4.14648438 34.36328125 C4.11350545 39.24245522 4.06177014 44.12110903 4 49 C4.99 49.33 5.98 49.66 7 50 C7 50.99 7 51.98 7 53 C5.02 53 3.04 53 1 53 C0.814375 51.8553125 0.814375 51.8553125 0.625 50.6875 C0.11897208 47.79732864 0.11897208 47.79732864 -2 45 C-2.19547021 42.42126852 -2.28014625 39.95327992 -2.265625 37.375 C-2.26753845 36.63169434 -2.2694519 35.88838867 -2.27142334 35.12255859 C-2.27278317 33.55240541 -2.26910079 31.9822409 -2.26074219 30.41210938 C-2.25003945 28.00885767 -2.2606439 25.60635346 -2.2734375 23.203125 C-2.27211587 21.67708168 -2.2695534 20.15103883 -2.265625 18.625 C-2.26967346 17.90618652 -2.27372192 17.18737305 -2.27789307 16.44677734 C-2.24311682 12.74649566 -2.10822399 11.16233599 0 8 C0 5.36 0 2.72 0 0 Z " fill="#F7EED4" transform="translate(79,76)"/>
<path d="M0 0 C0.01981934 0.63502441 0.03963867 1.27004883 0.06005859 1.92431641 C0.15581122 4.82493326 0.26528546 7.72487905 0.375 10.625 C0.4059375 11.62402344 0.436875 12.62304688 0.46875 13.65234375 C0.50742188 14.62558594 0.54609375 15.59882812 0.5859375 16.6015625 C0.63306885 17.93695068 0.63306885 17.93695068 0.68115234 19.29931641 C0.98026266 22.61684091 0.98026266 22.61684091 3 28 C-3.27 28 -9.54 28 -16 28 C-16 27.34 -16 26.68 -16 26 C-14.02 26 -12.04 26 -10 26 C-10 25.01 -10 24.02 -10 23 C-11.32 22.67 -12.64 22.34 -14 22 C-12.35 22 -10.7 22 -9 22 C-9 15.07 -9 8.14 -9 1 C-5.8035914 -0.06546953 -3.34252724 -0.07427838 0 0 Z " fill="#F1B43A" transform="translate(96,103)"/>
<path d="M0 0 C4.95 0 9.9 0 15 0 C14.67 1.65 14.34 3.3 14 5 C13.34 5 12.68 5 12 5 C12 15.23 12 25.46 12 36 C10.68 35.67 9.36 35.34 8 35 C7.01 35.495 7.01 35.495 6 36 C6 26.43 6 16.86 6 7 C5.01 6.67 4.02 6.34 3 6 C3 16.89 3 27.78 3 39 C2.67 39 2.34 39 2 39 C2 27.45 2 15.9 2 4 C2.99 4 3.98 4 5 4 C5 3.01 5 2.02 5 1 C3.35 1.33 1.7 1.66 0 2 C0 1.34 0 0.68 0 0 Z " fill="#F0B23D" transform="translate(122,82)"/>
<path d="M0 0 C-2 3 -2 3 -5.31298828 3.76782227 C-6.73030926 3.96405483 -8.14966161 4.14594499 -9.5703125 4.31640625 C-10.32537079 4.41839828 -11.08042908 4.52039032 -11.85836792 4.62547302 C-14.27910739 4.95041256 -16.70169921 5.25730263 -19.125 5.5625 C-21.52636309 5.87426184 -23.92712937 6.18988985 -26.32736206 6.51023865 C-27.82037308 6.70851296 -29.31410568 6.90145681 -30.80862427 7.08802795 C-31.8491243 7.22343239 -31.8491243 7.22343239 -32.91064453 7.36157227 C-33.50861847 7.43690689 -34.10659241 7.51224152 -34.72268677 7.58985901 C-38.18568394 8.21354005 -41.58634887 9.14658722 -45 10 C-45.33 19.9 -45.66 29.8 -46 40 C-46.99 40.495 -46.99 40.495 -48 41 C-48.84062776 36.63106263 -49.11732956 32.5164802 -49.09765625 28.0703125 C-49.09443359 26.78125 -49.09121094 25.4921875 -49.08789062 24.1640625 C-49.07953733 22.81770764 -49.07107241 21.47135348 -49.0625 20.125 C-49.0574783 18.75520996 -49.05291657 17.38541815 -49.04882812 16.015625 C-49.03707254 12.6770381 -49.02063964 9.33854185 -49 6 C-42.18874599 4.03591036 -35.45100584 2.35680616 -28.4375 1.3125 C-27.17244629 1.12143677 -27.17244629 1.12143677 -25.88183594 0.92651367 C-17.24361711 -0.27359668 -8.70064284 -0.28371661 0 0 Z " fill="#E0AF5A" transform="translate(81,24)"/>
<path d="M0 0 C0.99 0 1.98 0 3 0 C5.63290343 3.94935514 5.28744926 7.35505752 5.265625 11.9375 C5.26753845 12.81398193 5.2694519 13.69046387 5.27142334 14.59350586 C5.27278399 16.44612922 5.26909594 18.29876216 5.26074219 20.15136719 C5.25004092 22.98914989 5.26064148 25.82629952 5.2734375 28.6640625 C5.27211588 30.46354307 5.26955345 32.26302324 5.265625 34.0625 C5.26967346 34.91255615 5.27372192 35.7626123 5.27789307 36.63842773 C5.22993499 42.65509751 5.22993499 42.65509751 3 46 C2.01 46 1.02 46 0 46 C-1.13717088 43.72565824 -1.12666384 42.47417045 -1.12939453 39.94921875 C-1.13254669 39.11495361 -1.13569885 38.28068848 -1.13894653 37.42114258 C-1.13591019 36.0679895 -1.13591019 36.0679895 -1.1328125 34.6875 C-1.13424759 33.30050903 -1.13424759 33.30050903 -1.13571167 31.88549805 C-1.13639283 29.92854749 -1.134543 27.97159467 -1.13037109 26.01464844 C-1.12502195 23.01231836 -1.13031825 20.0101379 -1.13671875 17.0078125 C-1.13605796 15.10937467 -1.13477677 13.21093693 -1.1328125 11.3125 C-1.13483673 10.41039795 -1.13686096 9.5082959 -1.13894653 8.57885742 C-1.13579437 7.74459229 -1.13264221 6.91032715 -1.12939453 6.05078125 C-1.12859894 5.31512939 -1.12780334 4.57947754 -1.12698364 3.8215332 C-1 2 -1 2 0 0 Z " fill="#143062" transform="translate(99,81)"/>
<path d="M0 0 C5.28 0.33 10.56 0.66 16 1 C16.33 2.32 16.66 3.64 17 5 C16.34 5 15.68 5 15 5 C15 4.34 15 3.68 15 3 C10.05 3 5.1 3 0 3 C1.65 3.33 3.3 3.66 5 4 C5 4.99 5 5.98 5 7 C3.02 7.99 3.02 7.99 1 9 C1.01047363 10.04454346 1.02094727 11.08908691 1.03173828 12.1652832 C1.06793172 16.03976007 1.09089805 19.91422199 1.10986328 23.78881836 C1.11992237 25.46592725 1.13357122 27.14301861 1.15087891 28.82006836 C1.17513152 31.23035002 1.1864839 33.64039986 1.1953125 36.05078125 C1.20563507 36.80087967 1.21595764 37.55097809 1.22659302 38.32380676 C1.227408 42.10300779 1.15057067 43.77414399 -1 47 C4.61 47 10.22 47 16 47 C16 47.33 16 47.66 16 48 C11.05 48.33 6.1 48.66 1 49 C0.67 50.32 0.34 51.64 0 53 C-2.93562925 47.26079403 -3.40796376 42.73984575 -3.29296875 36.34765625 C-3.28872391 35.44752304 -3.28447906 34.54738983 -3.28010559 33.61997986 C-3.26341816 30.76717214 -3.22578497 27.91509137 -3.1875 25.0625 C-3.1724403 23.11915088 -3.15875415 21.17579061 -3.14648438 19.23242188 C-3.11354726 14.48800451 -3.0618344 9.74412517 -3 5 C-2.34 5 -1.68 5 -1 5 C-0.67 3.35 -0.34 1.7 0 0 Z " fill="#7F8996" transform="translate(122,79)"/>
<path d="M0 0 C0.66 0 1.32 0 2 0 C1.38330817 5.3942814 0.15894376 10.29340778 -1.5625 15.4375 C-1.82208496 16.21593262 -2.08166992 16.99436523 -2.34912109 17.79638672 C-4.92957879 25.25087451 -8.32339285 32.17805542 -12.01660156 39.13378906 C-13.11183745 41.21223571 -14.18221089 43.30179071 -15.2421875 45.3984375 C-15.74661377 46.39496338 -15.74661377 46.39496338 -16.26123047 47.41162109 C-17.07028757 48.85915751 -17.07028757 48.85915751 -17 50 C-20.465 50.495 -20.465 50.495 -24 51 C-23.50371094 50.175 -23.00742188 49.35 -22.49609375 48.5 C-15.232282 36.2274697 -9.67155392 23.46891948 -5 10 C-2.29113924 2.29113924 -2.29113924 2.29113924 0 0 Z " fill="#DBA94D" transform="translate(163,91)"/>
<path d="M0 0 C14.19 0 28.38 0 43 0 C44.07349791 4.29399165 43.79682816 5.19495213 42 9 C41.34 9 40.68 9 40 9 C40 22.53 40 36.06 40 50 C39.67 50 39.34 50 39 50 C38.92566205 44.12844592 38.87130883 38.25716781 38.83520508 32.38525391 C38.82014902 30.38911159 38.79969973 28.39300219 38.77368164 26.39697266 C38.73715839 23.52237815 38.72024163 20.64822228 38.70703125 17.7734375 C38.69154739 16.88570648 38.67606354 15.99797546 38.66011047 15.08334351 C38.65988388 14.24292511 38.65965729 13.40250671 38.65942383 12.53662109 C38.65276199 11.80381927 38.64610016 11.07101746 38.63923645 10.31600952 C39 8 39 8 42 2 C35.4 2 28.8 2 22 2 C22 2.66 22 3.32 22 4 C24.97 4.495 24.97 4.495 28 5 C27.01 5.33 26.02 5.66 25 6 C25.33 6.66 25.66 7.32 26 8 C26.08902493 9.35845193 26.11760132 10.72115974 26.11352539 12.08251953 C26.11344986 12.92324005 26.11337433 13.76396057 26.11329651 14.63015747 C26.10813522 15.53853363 26.10297394 16.44690979 26.09765625 17.3828125 C26.0962413 18.31221649 26.09482635 19.24162048 26.09336853 20.19918823 C26.08776053 23.17449124 26.07520668 26.14971964 26.0625 29.125 C26.05748603 31.13932183 26.05292295 33.15364484 26.04882812 35.16796875 C26.0377885 40.11200802 26.02051849 45.05599135 26 50 C26.66 50.33 27.32 50.66 28 51 C28 51.66 28 52.32 28 53 C26.35 53 24.7 53 23 53 C23.16233124 52.42411636 23.32466248 51.84823273 23.49191284 51.25489807 C23.98729457 49.05638688 24.1268127 47.16944036 24.12939453 44.92163086 C24.13254669 44.13078598 24.13569885 43.3399411 24.13894653 42.52513123 C24.1369223 41.68023636 24.13489807 40.83534149 24.1328125 39.96484375 C24.13376923 39.08977676 24.13472595 38.21470978 24.13571167 37.31312561 C24.13639115 35.46648079 24.13455302 33.61983357 24.13037109 31.77319336 C24.12501315 28.9444443 24.13032722 26.11585355 24.13671875 23.28710938 C24.13605805 21.49218715 24.13477707 19.69726502 24.1328125 17.90234375 C24.13483673 17.05542465 24.13686096 16.20850555 24.13894653 15.33592224 C24.12549849 11.9753935 24.07004416 9.21013249 23 6 C22.01 6 21.02 6 20 6 C19.67 6.99 19.34 7.98 19 9 C18.67 8.34 18.34 7.68 18 7 C18.33 6.01 18.66 5.02 19 4 C19.66 4 20.32 4 21 4 C20.67 3.34 20.34 2.68 20 2 C13.4 1.67 6.8 1.34 0 1 C0 0.67 0 0.34 0 0 Z " fill="#F1ECDB" transform="translate(79,75)"/>
<path d="M0 0 C0.33 0 0.66 0 1 0 C1.66 4.62 2.32 9.24 3 14 C3.66 14 4.32 14 5 14 C5.33 12.35 5.66 10.7 6 9 C6.66 9 7.32 9 8 9 C8 8.01 8 7.02 8 6 C9.65 5.34 11.3 4.68 13 4 C13 5.32 13 6.64 13 8 C14.32 7.67 15.64 7.34 17 7 C16.67 8.32 16.34 9.64 16 11 C16.99 11.33 17.98 11.66 19 12 C20.3125 13.75 20.3125 13.75 21 16 C20.125 18.75 20.125 18.75 19 21 C11.62611304 20.70854202 6.63837431 19.85391781 1.3515625 14.25390625 C-0.43393063 11.27636424 -0.29979317 9.19365725 -0.1875 5.75 C-0.14689453 4.13351563 -0.14689453 4.13351563 -0.10546875 2.484375 C-0.07066406 1.66453125 -0.03585938 0.8446875 0 0 Z " fill="#DBA646" transform="translate(31,144)"/>
<path d="M0 0 C0.33 0 0.66 0 1 0 C2.25 7.625 2.25 7.625 0 11 C-0.36749389 13.61289494 -0.36749389 13.61289494 -0.4140625 16.54296875 C-0.47207031 18.15268555 -0.47207031 18.15268555 -0.53125 19.79492188 C-0.57765625 21.47424805 -0.57765625 21.47424805 -0.625 23.1875 C-0.68300781 24.88422852 -0.68300781 24.88422852 -0.7421875 26.61523438 C-0.83652533 29.4099925 -0.92211652 32.20474278 -1 35 C-1.33 35 -1.66 35 -2 35 C-2 33.35 -2 31.7 -2 30 C-2.66 29.67 -3.32 29.34 -4 29 C-4.625 26.9375 -4.625 26.9375 -5 25 C-4.01 25 -3.02 25 -2 25 C-2 22.69 -2 20.38 -2 18 C-4.475 17.01 -4.475 17.01 -7 16 C-7 26.56 -7 37.12 -7 48 C-7.33 48 -7.66 48 -8 48 C-8.04943465 43.21282458 -8.08573582 38.42579773 -8.10986328 33.63842773 C-8.11992142 32.00982068 -8.13356958 30.38123168 -8.15087891 28.75268555 C-8.17513574 26.41190128 -8.18648483 24.07135576 -8.1953125 21.73046875 C-8.20563507 21.00224411 -8.21595764 20.27401947 -8.22659302 19.52372742 C-8.22742249 15.78724931 -8.12883296 14.19324944 -6 11 C-6.66 11 -7.32 11 -8 11 C-8 10.01 -8 9.02 -8 8 C-9.98 8 -11.96 8 -14 8 C-14.33 6.68 -14.66 5.36 -15 4 C-10.05 4 -5.1 4 0 4 C0 2.68 0 1.36 0 0 Z " fill="#E3B359" transform="translate(78,76)"/>
<path d="M0 0 C12.87 0 25.74 0 39 0 C38.34 1.65 37.68 3.3 37 5 C35.68 5 34.36 5 33 5 C33 5.99 33 6.98 33 8 C29.47771291 10.21742045 26.90042749 10.1284196 22.8125 9.75 C21.21341797 9.61851562 21.21341797 9.61851562 19.58203125 9.484375 C18.72996094 9.32453125 17.87789062 9.1646875 17 9 C16.67 8.34 16.34 7.68 16 7 C16.66 6.01 17.32 5.02 18 4 C18.99 4 19.98 4 21 4 C21 3.01 21 2.02 21 1 C14.07 1 7.14 1 0 1 C0 0.67 0 0.34 0 0 Z " fill="#F1BC51" transform="translate(84,146)"/>
<path d="M0 0 C1.65 0 3.3 0 5 0 C5 15.84 5 31.68 5 48 C3.35 48 1.7 48 0 48 C0 47.01 0 46.02 0 45 C0.66 45 1.32 45 2 45 C1.88168362 39.23407365 1.75743024 33.46831726 1.62768555 27.70263672 C1.5843874 25.74140904 1.54270869 23.7801449 1.50268555 21.81884766 C1.44485901 18.99891172 1.38120016 16.17915839 1.31640625 13.359375 C1.29969376 12.48319519 1.28298126 11.60701538 1.26576233 10.70428467 C1.24581711 9.88373596 1.22587189 9.06318726 1.20532227 8.21777344 C1.18977798 7.49829529 1.1742337 6.77881714 1.15821838 6.03753662 C0.9946058 3.93053354 0.57000469 2.03164263 0 0 Z " fill="#FEFEFE" transform="translate(196,56)"/>
<path d="M0 0 C0.33 0 0.66 0 1 0 C1.33 9.57 1.66 19.14 2 29 C2.66 29.33 3.32 29.66 4 30 C4.48741178 40.38006571 3.03977033 49.86185582 1 60 C0.67 59.34 0.34 58.68 0 58 C-1.32 58.66 -2.64 59.32 -4 60 C-3.79141357 58.88004639 -3.58282715 57.76009277 -3.36791992 56.60620117 C-1.15925077 44.13651627 -0.4692804 31.95757277 -0.3125 19.3125 C-0.27920546 17.42380639 -0.24470544 15.53513365 -0.20898438 13.64648438 C-0.12550336 9.09777515 -0.05806272 4.54910172 0 0 Z " fill="#CE9D4F" transform="translate(165,33)"/>
<path d="M0 0 C0.66 0 1.32 0 2 0 C2 0.66 2 1.32 2 2 C2.99 1.67 3.98 1.34 5 1 C5 2.32 5 3.64 5 5 C6.5778125 4.9690625 6.5778125 4.9690625 8.1875 4.9375 C12 5 12 5 14.6875 5.5625 C16.97752949 6.18052616 16.97752949 6.18052616 19.0625 5.375 C21 5 21 5 23.25 6.4375 C23.8275 6.953125 24.405 7.46875 25 8 C24.67 8.99 24.34 9.98 24 11 C19.37507206 12.01522809 15.64582868 11.9109468 11 11 C10.67 10.67 10.34 10.34 10 10 C9.67 10.66 9.34 11.32 9 12 C2.25 12.125 2.25 12.125 0 11 C0 7.37 0 3.74 0 0 Z " fill="#E9A632" transform="translate(174,127)"/>
<path d="M0 0 C1.32 0 2.64 0 4 0 C4 0.99 4 1.98 4 3 C4.99 3 5.98 3 7 3 C7.66 2.01 8.32 1.02 9 0 C9.99 0 10.98 0 12 0 C12.33 0.99 12.66 1.98 13 3 C13.66 3.66 14.32 4.32 15 5 C13.35 5 11.7 5 10 5 C13.38232729 8.58128772 16.67246241 11.60604303 21 14 C23.31026274 13.88556744 23.31026274 13.88556744 25 13 C24.67 14.65 24.34 16.3 24 18 C22 18.875 22 18.875 19 19 C13.73482528 16.05868704 9.2811432 11.57195781 4.859375 7.515625 C2.99186809 5.99337147 1.18959063 4.98822232 -1 4 C-0.67 2.68 -0.34 1.36 0 0 Z " fill="#D9A849" transform="translate(80,167)"/>
<path d="M0 0 C0.721875 0.185625 1.44375 0.37125 2.1875 0.5625 C5.12826973 1.01995307 7.14103058 0.73516357 10 0 C10 1.32 10 2.64 10 4 C10.99 4 11.98 4 13 4 C13.33 3.01 13.66 2.02 14 1 C14 3.64 14 6.28 14 9 C13.67 7.68 13.34 6.36 13 5 C11.68 5 10.36 5 9 5 C9.33 6.65 9.66 8.3 10 10 C9.24074219 9.9278125 8.48148438 9.855625 7.69921875 9.78125 C6.70535156 9.6884375 5.71148437 9.595625 4.6875 9.5 C3.70136719 9.4071875 2.71523437 9.314375 1.69921875 9.21875 C-1.04702139 8.95961143 -1.04702139 8.95961143 -4 9 C-5.32 9 -6.64 9 -8 9 C-8 8.01 -8 7.02 -8 6 C-6.515 6.99 -6.515 6.99 -5 8 C-5 7.34 -5 6.68 -5 6 C-5.99 5.67 -6.98 5.34 -8 5 C-7.67 3.68 -7.34 2.36 -7 1 C-7 1.66 -7 2.32 -7 3 C-5.68 3.33 -4.36 3.66 -3 4 C-2.01 2.68 -1.02 1.36 0 0 Z " fill="#44698C" transform="translate(81,55)"/>
<path d="M0 0 C0 2.97 0 5.94 0 9 C-0.99 9.495 -0.99 9.495 -2 10 C-2.79068076 11.74423584 -3.50718869 13.52232927 -4.1875 15.3125 C-6.06082161 19.92120272 -8.1004311 24.327499 -10.5 28.6875 C-11.0465625 29.68136719 -11.593125 30.67523438 -12.15625 31.69921875 C-14 34 -14 34 -16.71875 34.83203125 C-17.4715625 34.88746094 -18.224375 34.94289062 -19 35 C-18.50371094 34.11441406 -18.00742188 33.22882813 -17.49609375 32.31640625 C-13.22965565 24.57615541 -9.50132608 16.81194191 -6.34741211 8.54907227 C-3.01653909 0 -3.01653909 0 0 0 Z " fill="#173153" transform="translate(164,105)"/>
<path d="M0 0 C0.33 0 0.66 0 1 0 C1.01981934 1.05276123 1.03963867 2.10552246 1.06005859 3.19018555 C1.13708892 7.15833386 1.22564101 11.12616099 1.31738281 15.09399414 C1.35527575 16.79965803 1.39019155 18.50539111 1.421875 20.21118164 C1.59430588 29.38504328 1.91234495 38.29542858 3.58447266 47.34692383 C3.99157487 49.94620686 4.07336377 52.37411377 4 55 C3.67 54.34 3.34 53.68 3 53 C2.34 53 1.68 53 1 53 C0.67 53.99 0.34 54.98 0 56 C-1.7582374 49.08855462 -2.39893235 42.55392108 -2.625 35.4375 C-2.68300781 33.92446289 -2.68300781 33.92446289 -2.7421875 32.38085938 C-2.83546203 29.9207436 -2.92125516 27.46061634 -3 25 C-2.67 25 -2.34 25 -2 25 C-1.67 26.65 -1.34 28.3 -1 30 C-0.67 20.1 -0.34 10.2 0 0 Z " fill="#D2A558" transform="translate(35,34)"/>
<path d="M0 0 C1.34244622 0.00503214 2.6848943 0.00959198 4.02734375 0.01367188 C7.2682781 0.02532991 10.50911369 0.04169226 13.75 0.0625 C13.75 0.3925 13.75 0.7225 13.75 1.0625 C12.50283203 1.15337891 12.50283203 1.15337891 11.23046875 1.24609375 C9.60044922 1.37177734 9.60044922 1.37177734 7.9375 1.5 C6.85855469 1.58121094 5.77960938 1.66242187 4.66796875 1.74609375 C1.69010095 1.96462461 1.69010095 1.96462461 -1.25 3.0625 C11.62 3.5575 11.62 3.5575 24.75 4.0625 C24.75 4.3925 24.75 4.7225 24.75 5.0625 C10.89 5.0625 -2.97 5.0625 -17.25 5.0625 C-16.92 4.4025 -16.59 3.7425 -16.25 3.0625 C-19.88 2.7325 -23.51 2.4025 -27.25 2.0625 C-27.25 1.7325 -27.25 1.4025 -27.25 1.0625 C-18.14820483 0.11891745 -9.14547797 -0.05974433 0 0 Z " fill="#A48952" transform="translate(96.25,21.9375)"/>
<path d="M0 0 C1.485 0.99 1.485 0.99 3 2 C5.11280345 2.63292383 5.11280345 2.63292383 7 3 C6.67 3.66 6.34 4.32 6 5 C5.84373424 7.47832659 5.74186802 9.93311331 5.68359375 12.4140625 C5.66281265 13.14370209 5.64203156 13.87334167 5.62062073 14.62509155 C5.55518083 16.95829763 5.49626632 19.29161721 5.4375 21.625 C5.39430947 23.20574095 5.35069501 24.78647039 5.30664062 26.3671875 C5.19950519 30.24467504 5.09822218 34.12227685 5 38 C4.01 38 3.02 38 2 38 C0.41769192 34.83538385 0.75842187 31.40920633 0.68359375 27.9296875 C0.66281265 27.13345978 0.64203156 26.33723206 0.62062073 25.51687622 C0.55515851 22.96967315 0.49625585 20.42236575 0.4375 17.875 C0.3943116 16.14972873 0.35069721 14.42446807 0.30664062 12.69921875 C0.19948055 8.46625315 0.09820377 4.23318247 0 0 Z " fill="#F8ECCF" transform="translate(122,86)"/>
<path d="M0 0 C4.95 0 9.9 0 15 0 C14.67 1.65 14.34 3.3 14 5 C13.34 5 12.68 5 12 5 C12 5.99 12 6.98 12 8 C10.02 8.33 8.04 8.66 6 9 C6 8.34 6 7.68 6 7 C5.01 6.67 4.02 6.34 3 6 C3 16.89 3 27.78 3 39 C2.67 39 2.34 39 2 39 C2 27.45 2 15.9 2 4 C2.99 4 3.98 4 5 4 C5 3.01 5 2.02 5 1 C3.35 1.33 1.7 1.66 0 2 C0 1.34 0 0.68 0 0 Z " fill="#ECB44F" transform="translate(122,82)"/>
<path d="M0 0 C0 5.28 0 10.56 0 16 C-0.66 15.34 -1.32 14.68 -2 14 C-2.33 14.66 -2.66 15.32 -3 16 C-4.32 15.67 -5.64 15.34 -7 15 C-7.12375 14.360625 -7.2475 13.72125 -7.375 13.0625 C-7.58125 12.381875 -7.7875 11.70125 -8 11 C-8.66 10.67 -9.32 10.34 -10 10 C-9.7525 8.824375 -9.7525 8.824375 -9.5 7.625 C-8.9376293 5.11791961 -8.9376293 5.11791961 -9 3 C-5.73782087 -0.14135768 -4.88212497 0 0 0 Z " fill="#EBAC34" transform="translate(168,142)"/>
<path d="M0 0 C0.66 0 1.32 0 2 0 C2 13.2 2 26.4 2 40 C0 39 0 39 -1 36 C-1.09653117 33.52151657 -1.14001063 31.07205409 -1.1328125 28.59375 C-1.13376923 27.87264038 -1.13472595 27.15153076 -1.13571167 26.40856934 C-1.1363915 24.88549716 -1.13455093 23.36242206 -1.13037109 21.83935547 C-1.12502003 19.50872283 -1.13032269 17.1782829 -1.13671875 14.84765625 C-1.13605793 13.36718707 -1.1347767 11.88671802 -1.1328125 10.40625 C-1.13483673 9.7093103 -1.13686096 9.01237061 -1.13894653 8.29431152 C-1.12420003 5.24984271 -0.97095844 2.91287532 0 0 Z " fill="#253B65" transform="translate(80,84)"/>
<path d="M0 0 C0.91523437 0.0721875 1.83046875 0.144375 2.7734375 0.21875 C3.96195312 0.3115625 5.15046875 0.404375 6.375 0.5 C8.15003906 0.63921875 8.15003906 0.63921875 9.9609375 0.78125 C11.63786843 0.90195454 13.31873056 1 15 1 C16.33783393 1.31478446 17.67203709 1.64587656 19 2 C18.67 2.66 18.34 3.32 18 4 C17.01 3.67 16.02 3.34 15 3 C15 4.32 15 5.64 15 7 C16.32 6.67 17.64 6.34 19 6 C18.67 6.99 18.34 7.98 18 9 C16.18706911 8.85962479 14.3746557 8.71255111 12.5625 8.5625 C11.04849609 8.44068359 11.04849609 8.44068359 9.50390625 8.31640625 C7 8 7 8 6 7 C4.00041636 6.95919217 1.99954746 6.95745644 0 7 C0 4.69 0 2.38 0 0 Z " fill="#393F42" transform="translate(66,154)"/>
<path d="M0 0 C1.32 0 2.64 0 4 0 C4.33 0.99 4.66 1.98 5 3 C5.33 2.34 5.66 1.68 6 1 C6.5775 1.350625 7.155 1.70125 7.75 2.0625 C10.35801776 3.14917407 11.39417629 2.93065133 14 2 C13.67 4.31 13.34 6.62 13 9 C11.02 9 9.04 9 7 9 C7 9.66 7 10.32 7 11 C5.02 11.66 3.04 12.32 1 13 C1.185625 12.236875 1.37125 11.47375 1.5625 10.6875 C2.22819173 7.91032625 2.22819173 7.91032625 1 5 C-1.01508358 4.26676204 -1.01508358 4.26676204 -3 4 C-1.75 2 -1.75 2 0 0 Z " fill="#CF9D3F" transform="translate(49,151)"/>
<path d="M0 0 C0 0.99 0 1.98 0 3 C-11.88220439 11.91165329 -34.43732533 14.24341216 -49 13 C-50.35029832 12.3684015 -51.68732511 11.70647494 -53 11 C-52.14994385 10.93530518 -51.2998877 10.87061035 -50.42407227 10.80395508 C-24.09718185 9.48443387 -24.09718185 9.48443387 0 0 Z " fill="#E9E6D8" transform="translate(163,133)"/>
<path d="M0 0 C0 3.63 0 7.26 0 11 C-1.32 11 -2.64 11 -4 11 C-4.99 11.495 -4.99 11.495 -6 12 C-6.99 12.33 -7.98 12.66 -9 13 C-9 8.71 -9 4.42 -9 0 C-5 -1 -5 -1 0 0 Z " fill="#F1B33B" transform="translate(96,90)"/>
<path d="M0 0 C6.93 0 13.86 0 21 0 C17.12038353 3.87961647 14.43416733 6.2157554 10 9 C8.33043913 7.69118353 6.66441696 6.37785174 5 5.0625 C4.071875 4.33160156 3.14375 3.60070312 2.1875 2.84765625 C1.465625 2.23792969 0.74375 1.62820312 0 1 C0 0.67 0 0.34 0 0 Z " fill="#0E2B52" transform="translate(90,173)"/>
<path d="M0 0 C0.99 0.495 0.99 0.495 2 1 C2.33 15.19 2.66 29.38 3 44 C4.32 44.33 5.64 44.66 7 45 C5.68 45.99 4.36 46.98 3 48 C-0.32365473 42.6407505 -0.39928909 38.32219297 -0.29296875 32.2265625 C-0.28872391 31.3028183 -0.28447906 30.3790741 -0.28010559 29.42733765 C-0.26338673 26.4929217 -0.22574716 23.55920644 -0.1875 20.625 C-0.17244438 18.62891621 -0.15875751 16.63282159 -0.14648438 14.63671875 C-0.11350545 9.75754478 -0.06177014 4.87889097 0 0 Z " fill="#C6C3B4" transform="translate(96,83)"/>
<path d="M0 0 C2.23370599 3.35055899 2.75749742 5.82192459 3.5625 9.75 C3.81128906 10.94109375 4.06007813 12.1321875 4.31640625 13.359375 C4.98070539 16.89724241 5.51981438 20.43290681 6 24 C5.01 24.33 4.02 24.66 3 25 C2.67 23.68 2.34 22.36 2 21 C1.34 21 0.68 21 0 21 C-0.73837697 16.67522058 -1.39021834 12.34469434 -2 8 C-2.185625 6.700625 -2.37125 5.40125 -2.5625 4.0625 C-2.706875 3.051875 -2.85125 2.04125 -3 1 C-2.01 0.67 -1.02 0.34 0 0 Z " fill="#153254" transform="translate(33,81)"/>
<path d="M0 0 C1.65 0 3.3 0 5 0 C4.67 0.66 4.34 1.32 4 2 C5.11375 2.12375 6.2275 2.2475 7.375 2.375 C11 3 11 3 13 5 C12.625 8.125 12.625 8.125 12 11 C10.35 10.67 8.7 10.34 7 10 C6.67 9.01 6.34 8.02 6 7 C5.34 7 4.68 7 4 7 C4 8.65 4 10.3 4 12 C3.34 12 2.68 12 2 12 C1.67 10.02 1.34 8.04 1 6 C0.34 6 -0.32 6 -1 6 C-0.67 4.02 -0.34 2.04 0 0 Z " fill="#DDA948" transform="translate(117,151)"/>
<path d="M0 0 C2.97 0 5.94 0 9 0 C9 0.66 9 1.32 9 2 C9.66 2 10.32 2 11 2 C11 4.64 11 7.28 11 10 C7.78548731 11.60725635 4.56387464 11.05748185 1 11 C1.01160156 10.37351562 1.02320312 9.74703125 1.03515625 9.1015625 C1.04417969 8.28429688 1.05320312 7.46703125 1.0625 6.625 C1.07990234 5.40683594 1.07990234 5.40683594 1.09765625 4.1640625 C1.14466334 1.95062858 1.14466334 1.95062858 0 0 Z " fill="#06295A" transform="translate(87,38)"/>
<path d="M0 0 C4.46362911 1.41529704 8.6983742 3.15644608 13 5 C18.52536145 7.17949543 24.08379406 7.79022353 29.9375 8.5 C36.14160768 9.25528267 42.04140351 10.07733743 48 12 C48 12.33 48 12.66 48 13 C40.41000377 13.23172753 33.33102289 12.65521388 25.875 11.25 C24.95074219 11.09273437 24.02648437 10.93546875 23.07421875 10.7734375 C14.48687929 9.19889007 7.02013652 6.22010151 0 1 C0 0.67 0 0.34 0 0 Z " fill="#EEE6CA" transform="translate(36,133)"/>
<path d="M0 0 C1.98 0 3.96 0 6 0 C5.27087654 0.62404472 5.27087654 0.62404472 4.52702332 1.26069641 C1.95907322 4.18563199 2.51740545 7.88755463 2.48828125 11.60546875 C2.47033005 12.44467361 2.45237885 13.28387848 2.43388367 14.14851379 C2.37971437 16.82812479 2.34586427 19.50755702 2.3125 22.1875 C2.27933271 24.00458221 2.2448436 25.8216408 2.20898438 27.63867188 C2.12398428 32.09231905 2.05720498 36.54591259 2 41 C1.34 41 0.68 41 0 41 C0 27.47 0 13.94 0 0 Z " fill="#FAF6E4" transform="translate(84,84)"/>
<path d="M0 0 C1.65 0 3.3 0 5 0 C4.01 1.485 4.01 1.485 3 3 C2.75878651 5.89659349 2.62700558 8.7053355 2.5859375 11.60546875 C2.56657135 12.44467361 2.5472052 13.28387848 2.5272522 14.14851379 C2.46748787 16.82807258 2.42108388 19.5076744 2.375 22.1875 C2.3368173 24.00457599 2.29776539 25.82163394 2.2578125 27.63867188 C2.16178897 32.09230132 2.07774641 36.54601551 2 41 C1.34 41 0.68 41 0 41 C0 27.47 0 13.94 0 0 Z " fill="#F9EED3" transform="translate(106,84)"/>
<path d="M0 0 C0.99352979 3.10805454 0.97533266 5.05464493 0.109375 8.1875 C-0.10589844 8.96867187 -0.32117188 9.74984375 -0.54296875 10.5546875 C-0.77628906 11.36164063 -1.00960937 12.16859375 -1.25 13 C-1.46785156 13.80695313 -1.68570313 14.61390625 -1.91015625 15.4453125 C-3.05711523 19.50997416 -4.06794953 22.82648655 -7 26 C-7 23.69 -7 21.38 -7 19 C-7.66 19.33 -8.32 19.66 -9 20 C-8.5758071 18.05954312 -8.13514005 16.12268239 -7.6875 14.1875 C-7.44386719 13.10855469 -7.20023438 12.02960938 -6.94921875 10.91796875 C-5.99857427 7.99561719 -5.32773769 6.89689678 -3 5 C-0.7763932 3.0745356 -0.7763932 3.0745356 0 0 Z " fill="#3B4E68" transform="translate(170,87)"/>
<path d="M0 0 C5.45769811 -0.11138159 10.61509359 0.08342019 16 1 C15.67 4.63 15.34 8.26 15 12 C14.01 12 13.02 12 12 12 C12 9.03 12 6.06 12 3 C9.03 2.505 9.03 2.505 6 2 C6.144375 3.27875 6.28875 4.5575 6.4375 5.875 C6.55931641 6.95394531 6.55931641 6.95394531 6.68359375 8.0546875 C6.91292961 10.07404316 6.91292961 10.07404316 8 12 C6.02 12 4.04 12 2 12 C2.33 11.34 2.66 10.68 3 10 C3.22467831 8.46331135 3.40796805 6.92031946 3.5625 5.375 C3.64628906 4.55773438 3.73007813 3.74046875 3.81640625 2.8984375 C3.87699219 2.27195313 3.93757813 1.64546875 4 1 C2.02 1.99 2.02 1.99 0 3 C0 2.01 0 1.02 0 0 Z " fill="#89A3B7" transform="translate(116,38)"/>
<path d="M0 0 C6.56479333 -0.33380305 9.8650455 0.17854095 14.875 4.6875 C16.5827328 8.19783965 15.92692607 11.34763458 15 15 C14.505 16.093125 14.01 17.18625 13.5 18.3125 C11.52390499 23.17040024 11.27263049 27.80121866 11 33 C10.67 33 10.34 33 10 33 C9.945652 30.9377952 9.90705039 28.87517184 9.875 26.8125 C9.85179687 25.66394531 9.82859375 24.51539063 9.8046875 23.33203125 C9.99792677 20.03536938 10.71267053 17.99551664 12 15 C12.43706013 11.9405791 12.46059744 9.0588394 12 6 C10.19163114 3.58884153 8.86750554 3.16389895 5.953125 2.61328125 C3.97658328 2.34343424 1.98798629 2.16566552 0 2 C0 1.34 0 0.68 0 0 Z " fill="#E9E1CC" transform="translate(159,121)"/>
<path d="M0 0 C1.17805992 3.53417975 1.1064333 6.6979444 1.0625 10.37109375 C1.05871338 11.0898317 1.05492676 11.80856964 1.05102539 12.54908752 C1.03469187 15.62076784 1.00656895 18.69231464 0.97949219 21.76391602 C0.96139307 24.00796899 0.94930713 26.25200027 0.9375 28.49609375 C0.92920166 29.18787216 0.92090332 29.87965057 0.91235352 30.59239197 C0.89565653 33.88152024 0.98107877 36.85548474 2 40 C1.01 39.67 0.02 39.34 -1 39 C-2.51828429 35.96343141 -2.16284821 32.80394732 -2.16796875 29.47265625 C-2.17129715 28.72793564 -2.17462555 27.98321503 -2.17805481 27.21592712 C-2.18312026 25.63980731 -2.18546325 24.06367677 -2.18530273 22.48754883 C-2.18748822 20.0755039 -2.20564468 17.66391703 -2.22460938 15.25195312 C-2.22754357 13.72135573 -2.22952819 12.19075617 -2.23046875 10.66015625 C-2.23765427 9.93820572 -2.24483978 9.21625519 -2.25224304 8.47242737 C-2.23528628 4.75756538 -2.11674496 3.17511744 0 0 Z " fill="#D2D3CB" transform="translate(79,84)"/>
<path d="M0 0 C0.86560547 -0.00128906 1.73121094 -0.00257812 2.62304688 -0.00390625 C3.9755957 0.00189453 3.9755957 0.00189453 5.35546875 0.0078125 C6.69061523 0.00201172 6.69061523 0.00201172 8.05273438 -0.00390625 C12.66304302 0.0029289 17.00784495 0.18830738 21.54296875 1.1328125 C21.21296875 1.7928125 20.88296875 2.4528125 20.54296875 3.1328125 C10.64296875 3.1328125 0.74296875 3.1328125 -9.45703125 3.1328125 C-6.50836051 0.18414176 -3.98712845 0.00573629 0 0 Z " fill="#EEB955" transform="translate(102.45703125,22.8671875)"/>
<path d="M0 0 C6.19240462 0.68804496 12.01955594 2.28048715 18 4 C18 4.33 18 4.66 18 5 C16.54176788 5.0270043 15.08339325 5.04639787 13.625 5.0625 C12.81289062 5.07410156 12.00078125 5.08570312 11.1640625 5.09765625 C9 5 9 5 7 4 C7 4.66 7 5.32 7 6 C7.66 6.33 8.32 6.66 9 7 C4.91556885 8.53166168 1.20544343 7.63081652 -3 7 C-2.01 4.69 -1.02 2.38 0 0 Z " fill="#B7934F" transform="translate(162,114)"/>
<path d="M0 0 C2.97 1.98 5.94 3.96 9 6 C7 10 7 10 4.27734375 11.23828125 C-3.26987475 12.99240236 -11.41468877 12.41122069 -19 11 C-18.67 9.68 -18.34 8.36 -18 7 C-18 7.66 -18 8.32 -18 9 C-15.03 9.33 -12.06 9.66 -9 10 C-8.67 9.01 -8.34 8.02 -8 7 C-7.67 7.66 -7.34 8.32 -7 9 C-5.39592672 9.02708567 -3.7917215 9.04643483 -2.1875 9.0625 C-0.84751953 9.07990234 -0.84751953 9.07990234 0.51953125 9.09765625 C3.13413791 9.11009967 3.13413791 9.11009967 6 8 C6.33 7.34 6.66 6.68 7 6 C6.401875 5.71125 5.80375 5.4225 5.1875 5.125 C3 4 3 4 0 2 C0 1.34 0 0.68 0 0 Z " fill="#CDAF77" transform="translate(192,129)"/>
<path d="M0 0 C2.953626 0.984542 3.87615927 1.87615927 6 4 C6.36162029 5.32594105 6.69728039 6.65938457 7 8 C4.03 7.505 4.03 7.505 1 7 C0.34 5.02 -0.32 3.04 -1 1 C-0.67 0.67 -0.34 0.34 0 0 Z M11 7 C11.66 8.32 12.32 9.64 13 11 C10.69 12.65 8.38 14.3 6 16 C5.34 14.68 4.68 13.36 4 12 C4.33 11.67 4.66 11.34 5 11 C4.34 10.34 3.68 9.68 3 9 C6 8 6 8 8.1875 8.9375 C8.785625 9.288125 9.38375 9.63875 10 10 C10.33 9.01 10.66 8.02 11 7 Z " fill="#CB9C3E" transform="translate(155,148)"/>
<path d="M0 0 C1.22589844 0.01353516 1.22589844 0.01353516 2.4765625 0.02734375 C3.41628906 0.04474609 3.41628906 0.04474609 4.375 0.0625 C4.375 0.7225 4.375 1.3825 4.375 2.0625 C3.67632812 2.18367188 2.97765625 2.30484375 2.2578125 2.4296875 C0.89269531 2.68105469 0.89269531 2.68105469 -0.5 2.9375 C-1.40492187 3.09992188 -2.30984375 3.26234375 -3.2421875 3.4296875 C-5.79005988 3.89294703 -5.79005988 3.89294703 -7.625 6.0625 C-8.30725544 11.16938264 -7.69762496 15.36455009 -5.625 20.0625 C-5.955 21.0525 -6.285 22.0425 -6.625 23.0625 C-12.80681818 13.32613636 -12.80681818 13.32613636 -11.625 7.0625 C-8.55116127 2.05621119 -5.83859709 -0.08340853 0 0 Z " fill="#F9F2DB" transform="translate(37.625,120.9375)"/>
<path d="M0 0 C0.33 0 0.66 0 1 0 C1.02505615 0.87325928 1.0501123 1.74651855 1.07592773 2.64624023 C1.17087709 5.87602552 1.27012029 9.10564154 1.37231445 12.33520508 C1.41571434 13.73489199 1.45738564 15.13463359 1.49731445 16.53442383 C1.55489445 18.54261495 1.61914 20.55061149 1.68359375 22.55859375 C1.72025146 23.76829834 1.75690918 24.97800293 1.79467773 26.22436523 C1.68938266 28.90705456 1.68938266 28.90705456 3 30 C3.15167148 31.95422866 3.22179996 33.91509729 3.25 35.875 C3.27578125 36.94492188 3.3015625 38.01484375 3.328125 39.1171875 C3 42 3 42 0 45 C0 30.15 0 15.3 0 0 Z " fill="#C5954D" transform="translate(165,33)"/>
<path d="M0 0 C1.32 0.33 2.64 0.66 4 1 C3.67 1.33 3.34 1.66 3 2 C2.84111908 4.28988781 2.74861927 6.58443441 2.68359375 8.87890625 C2.66281265 9.5655687 2.64203156 10.25223114 2.62062073 10.95970154 C2.55505857 13.16052935 2.49620985 15.36147975 2.4375 17.5625 C2.39432108 19.05144514 2.350707 20.54037773 2.30664062 22.02929688 C2.1993707 25.68606553 2.09812228 29.34297318 2 33 C1.34 33 0.68 33 0 33 C0 22.11 0 11.22 0 0 Z " fill="#F9F1D7" transform="translate(68,88)"/>
<path d="M0 0 C1.32 0 2.64 0 4 0 C4.33 1.65 4.66 3.3 5 5 C4.01 5 3.02 5 2 5 C2 18.53 2 32.06 2 46 C2.66 46 3.32 46 4 46 C4 47.32 4 48.64 4 50 C2.68 49.67 1.36 49.34 0 49 C0.99 49 1.98 49 3 49 C3 48.34 3 47.68 3 47 C2.01 46.67 1.02 46.34 0 46 C0 30.82 0 15.64 0 0 Z " fill="#EAC476" transform="translate(104,79)"/>
<path d="M0 0 C3.125 0.375 3.125 0.375 6 1 C6.625 3.3125 6.625 3.3125 7 6 C6.01 7.485 6.01 7.485 5 9 C1.9375 9.25 1.9375 9.25 -1 9 C-2 8 -2 8 -2.1875 5.0625 C-2 2 -2 2 0 0 Z " fill="#5C7795" transform="translate(109,55)"/>
<path d="M0 0 C1.32 0 2.64 0 4 0 C4 0.99 4 1.98 4 3 C4.99 3 5.98 3 7 3 C7.66 2.01 8.32 1.02 9 0 C9.99 0 10.98 0 12 0 C12.33 0.99 12.66 1.98 13 3 C13.66 3.66 14.32 4.32 15 5 C13.02 5 11.04 5 9 5 C8.67 5.99 8.34 6.98 8 8 C5.03 7.01 2.06 6.02 -1 5 C-0.67 3.35 -0.34 1.7 0 0 Z " fill="#F1B544" transform="translate(80,167)"/>
<path d="M0 0 C0.66 0.33 1.32 0.66 2 1 C1.46571726 5.27426188 -0.17598269 8.57161136 -2.16015625 12.328125 C-3.07481385 13.83710454 -3.07481385 13.83710454 -3 15 C-5.31 15.33 -7.62 15.66 -10 16 C-8.90700499 14.01464194 -7.80023764 12.03686057 -6.6875 10.0625 C-6.07261719 8.96035156 -5.45773438 7.85820312 -4.82421875 6.72265625 C-3 4 -3 4 0 3 C0 2.01 0 1.02 0 0 Z " fill="#DCB054" transform="translate(149,126)"/>
<path d="M0 0 C2.66782556 2.66782556 2.59610663 4.60604884 3.125 8.3125 C3.29257812 9.44300781 3.46015625 10.57351562 3.6328125 11.73828125 C3.94757121 14.53427619 4.07376764 17.19156059 4 20 C3.67 19.34 3.34 18.68 3 18 C2.34 18 1.68 18 1 18 C0.67 18.99 0.34 19.98 0 21 C-0.86860031 16.51223172 -1.13464852 12.25607233 -1.125 7.6875 C-1.12757812 6.45386719 -1.13015625 5.22023438 -1.1328125 3.94921875 C-1 1 -1 1 0 0 Z " fill="#DDAC56" transform="translate(35,69)"/>
<path d="M0 0 C0.99 0 1.98 0 3 0 C3.99 2.31 4.98 4.62 6 7 C6.33 5.02 6.66 3.04 7 1 C6.34 0.67 5.68 0.34 5 0 C6.32 0 7.64 0 9 0 C10.52448631 2.9826906 11.93940067 5.818202 13 9 C10 9 10 9 8 8 C7.01 9.485 7.01 9.485 6 11 C5.34 11 4.68 11 4 11 C3.32591692 9.73308493 2.66099503 8.46129251 2 7.1875 C1.62875 6.47980469 1.2575 5.77210937 0.875 5.04296875 C0 3 0 3 0 0 Z " fill="#A1B3C2" transform="translate(66,39)"/>
<path d="M0 0 C0.99 0.33 1.98 0.66 3 1 C3.33 4.3 3.66 7.6 4 11 C3.34 11 2.68 11 2 11 C1.67 12.98 1.34 14.96 1 17 C0.01 17 -0.98 17 -2 17 C-2.21824777 10.9981863 -1.5056904 5.80766296 0 0 Z " fill="#0F294F" transform="translate(168,76)"/>
<path d="M0 0 C1.32 0 2.64 0 4 0 C4.33 3.63 4.66 7.26 5 11 C1.95048605 9.47524303 -0.36399506 8.07114674 -3 6 C-3 8.31 -3 10.62 -3 13 C-3.66 13 -4.32 13 -5 13 C-5.66 9.37 -6.32 5.74 -7 2 C-2.31908701 2 -1.37898396 2.99645871 2 6 C2 4.68 2 3.36 2 2 C1.34 1.34 0.68 0.68 0 0 Z " fill="#B5C8D3" transform="translate(50,41)"/>
<path d="M0 0 C1.2065625 0.0309375 1.2065625 0.0309375 2.4375 0.0625 C3.5625 6.8125 3.5625 6.8125 2.4375 9.0625 C0.77138095 9.105221 -0.89632885 9.10313832 -2.5625 9.0625 C-3.5625 8.0625 -3.5625 8.0625 -3.6875 4.5625 C-3.52762642 0.08603967 -3.52762642 0.08603967 0 0 Z " fill="#092D5D" transform="translate(139.5625,40.9375)"/>
<path d="M0 0 C0.33 0 0.66 0 1 0 C1 13.86 1 27.72 1 42 C1.66 42.33 2.32 42.66 3 43 C3 43.66 3 44.32 3 45 C1.35 45 -0.3 45 -2 45 C-1.83923477 44.42699158 -1.67846954 43.85398315 -1.51283264 43.26361084 C-1.00801589 41.03538161 -0.8439395 39.06234275 -0.79467773 36.78222656 C-0.77473251 35.96167786 -0.75478729 35.14112915 -0.73423767 34.29571533 C-0.71752518 33.41953552 -0.70081268 32.54335571 -0.68359375 31.640625 C-0.66281265 30.73624695 -0.64203156 29.8318689 -0.62062073 28.90008545 C-0.5553406 26.01679945 -0.49634048 23.1334239 -0.4375 20.25 C-0.39429429 18.29295956 -0.35067935 16.33592812 -0.30664062 14.37890625 C-0.19968128 9.5860288 -0.09835327 4.79306146 0 0 Z " fill="#F5E8C8" transform="translate(104,83)"/>
<path d="M0 0 C0.99 0.33 1.98 0.66 3 1 C2.67 1.33 2.34 1.66 2 2 C1.95907063 4.33297433 1.95758277 6.66705225 2 9 C3.65 9.33 5.3 9.66 7 10 C7.11320856 4.91696314 7.11320856 4.91696314 6 0 C7.32 0.66 8.64 1.32 10 2 C10.125 5.375 10.125 5.375 10 9 C8 11 8 11 6.0546875 11.1953125 C4.03645833 11.13020833 2.01822917 11.06510417 0 11 C-1.56633048 8.51229865 -2.04100928 7.34447796 -1.6875 4.375 C-1 2 -1 2 0 0 Z " fill="#A9BCCA" transform="translate(135,40)"/>
<path d="M0 0 C6.75 0.875 6.75 0.875 9 2 C9 2.99 9 3.98 9 5 C8.01 5 7.02 5 6 5 C6 5.66 6 6.32 6 7 C6.66 7 7.32 7 8 7 C8 7.66 8 8.32 8 9 C5.6875 8.8125 5.6875 8.8125 3 8 C0.79029126 5.10451959 0 3.66842255 0 0 Z " fill="#E8A531" transform="translate(3,119)"/>
<path d="M0 0 C0 0.66 0 1.32 0 2 C1.32 2.33 2.64 2.66 4 3 C4 3.66 4 4.32 4 5 C3.40832031 5.03738281 2.81664062 5.07476562 2.20703125 5.11328125 C-2.60667451 5.51376901 -6.00841777 6.0385035 -10 9 C-10.33 7.35 -10.66 5.7 -11 4 C-9.02 4 -7.04 4 -5 4 C-5 3.01 -5 2.02 -5 1 C-3 0 -3 0 0 0 Z " fill="#E4AF49" transform="translate(38,116)"/>
<path d="M0 0 C1.75 0.125 1.75 0.125 4 1 C6.25 4.0625 6.25 4.0625 8 7 C8.66 6.34 9.32 5.68 10 5 C9.67 7.31 9.34 9.62 9 12 C6.66475218 9.74259377 4.81294927 7.7194239 3 5 C3 7.31 3 9.62 3 12 C1.68 11.34 0.36 10.68 -1 10 C-0.9278125 9.36191406 -0.855625 8.72382812 -0.78125 8.06640625 C-0.6884375 7.24011719 -0.595625 6.41382813 -0.5 5.5625 C-0.4071875 4.73878906 -0.314375 3.91507813 -0.21875 3.06640625 C-0.05543721 1.5360501 -0.05543721 1.5360501 0 0 Z " fill="#B3C5D2" transform="translate(147,41)"/>
<path d="M0 0 C0.99 0 1.98 0 3 0 C3 3.3 3 6.6 3 10 C4.65 9.34 6.3 8.68 8 8 C8.20086443 4.28400809 8.1519437 3.22791555 6 0 C9.875 0.875 9.875 0.875 11 2 C10.4 8.6 10.4 8.6 8 11 C5.31160615 11.26991906 2.70858064 11.08737357 0 11 C0 7.37 0 3.74 0 0 Z " fill="#D2DFE6" transform="translate(98,38)"/>
<path d="M0 0 C2.64 0 5.28 0 8 0 C7.67 0.66 7.34 1.32 7 2 C6.01 1.67 5.02 1.34 4 1 C4 2.32 4 3.64 4 5 C4.99 4.67 5.98 4.34 7 4 C7 4.66 7 5.32 7 6 C6.01 6 5.02 6 4 6 C4 7.32 4 8.64 4 10 C5.98 9.34 7.96 8.68 10 8 C9.67 8.99 9.34 9.98 9 11 C6.36 11.33 3.72 11.66 1 12 C1.020625 10.7625 1.04125 9.525 1.0625 8.25 C1.06766681 5.3359175 0.93015558 2.79046673 0 0 Z " fill="#BBCDD8" transform="translate(56,40)"/>
<path d="M0 0 C0.99 0.33 1.98 0.66 3 1 C2.01 1.495 2.01 1.495 1 2 C1 4.31 1 6.62 1 9 C0.4225 8.79375 -0.155 8.5875 -0.75 8.375 C-3.51967567 7.91338739 -4.64561267 8.57055055 -7 10 C-7.66 8.68 -8.32 7.36 -9 6 C-7.02 6.99 -7.02 6.99 -5 8 C-5 7.34 -5 6.68 -5 6 C-5.99 5.67 -6.98 5.34 -8 5 C-7.67 3.68 -7.34 2.36 -7 1 C-7 1.66 -7 2.32 -7 3 C-5.68 3.33 -4.36 3.66 -3 4 C-2.01 2.68 -1.02 1.36 0 0 Z " fill="#96AEC0" transform="translate(81,55)"/>
<path d="M0 0 C0.86625 0.5259375 0.86625 0.5259375 1.75 1.0625 C4.35801776 2.14917407 5.39417629 1.93065133 8 1 C7.67 3.31 7.34 5.62 7 8 C4.36 7.67 1.72 7.34 -1 7 C-0.67 4.69 -0.34 2.38 0 0 Z " fill="#27313C" transform="translate(55,152)"/>
<path d="M0 0 C-0.33 0.66 -0.66 1.32 -1 2 C-1.99 1.67 -2.98 1.34 -4 1 C-4 2.32 -4 3.64 -4 5 C-2.68 4.67 -1.36 4.34 0 4 C-0.33 4.99 -0.66 5.98 -1 7 C-6.46428571 6.39285714 -6.46428571 6.39285714 -8.875 4.625 C-10 3 -10 3 -10 0 C-6.22799206 -1.25733598 -3.74702285 -1.03366148 0 0 Z " fill="#73603E" transform="translate(85,156)"/>
<path d="M0 0 C1.66666667 0 3.33333333 0 5 0 C5 2.97 5 5.94 5 9 C3.68 9.33 2.36 9.66 1 10 C0 9 0 9 -0.09765625 6.93359375 C-0.08605469 6.10988281 -0.07445313 5.28617188 -0.0625 4.4375 C-0.05347656 3.61121094 -0.04445313 2.78492188 -0.03515625 1.93359375 C-0.02355469 1.29550781 -0.01195313 0.65742187 0 0 Z " fill="#072859" transform="translate(115,39)"/>
<path d="M0 0 C2 3 2 3 2 5 C1.34 5 0.68 5 0 5 C0 4.34 0 3.68 0 3 C-1.65 3.33 -3.3 3.66 -5 4 C-5 4.66 -5 5.32 -5 6 C-6.79008467 6.22151549 -8.58218162 6.42682213 -10.375 6.625 C-11.37273438 6.74101563 -12.37046875 6.85703125 -13.3984375 6.9765625 C-14.25695312 6.98429687 -15.11546875 6.99203125 -16 7 C-16.66 6.34 -17.32 5.68 -18 5 C-17.11957031 4.80664062 -16.23914063 4.61328125 -15.33203125 4.4140625 C-14.17058594 4.15367188 -13.00914063 3.89328125 -11.8125 3.625 C-10.66394531 3.36976562 -9.51539063 3.11453125 -8.33203125 2.8515625 C-5.41192652 2.10527548 -2.76046611 1.19568212 0 0 Z " fill="#BB9F67" transform="translate(38,113)"/>
<path d="M0 0 C1.65 0 3.3 0 5 0 C6.125 4.75 6.125 4.75 5 7 C3.35 6.67 1.7 6.34 0 6 C-1.125 2.25 -1.125 2.25 0 0 Z " fill="#594F39" transform="translate(124,155)"/>
<path d="M0 0 C2.17854707 3.2678206 3.49760034 6.38058265 5 10 C2.36 9.67 -0.28 9.34 -3 9 C-3 7.35 -3 5.7 -3 4 C-2.01 3.67 -1.02 3.34 0 3 C0 2.01 0 1.02 0 0 Z " fill="#DAA239" transform="translate(24,130)"/>
<path d="M0 0 C2.97 0 5.94 0 9 0 C9 0.66 9 1.32 9 2 C7.35 1.67 5.7 1.34 4 1 C4 3.97 4 6.94 4 10 C5.98 9.34 7.96 8.68 10 8 C9.67 8.99 9.34 9.98 9 11 C6.36 11 3.72 11 1 11 C1.01160156 10.37351562 1.02320312 9.74703125 1.03515625 9.1015625 C1.04417969 8.28429688 1.05320312 7.46703125 1.0625 6.625 C1.07990234 5.40683594 1.07990234 5.40683594 1.09765625 4.1640625 C1.14466334 1.95062858 1.14466334 1.95062858 0 0 Z " fill="#C8D9E0" transform="translate(87,38)"/>
<path d="M0 0 C0.66 0 1.32 0 2 0 C2 0.66 2 1.32 2 2 C2.99 1.67 3.98 1.34 5 1 C5 2.32 5 3.64 5 5 C5.99 5.33 6.98 5.66 8 6 C7.67 6.99 7.34 7.98 7 9 C4.69 8.67 2.38 8.34 0 8 C0 5.36 0 2.72 0 0 Z " fill="#EDAE3D" transform="translate(174,127)"/>
<path d="M0 0 C4.62 0 9.24 0 14 0 C13.01 1.485 13.01 1.485 12 3 C8.9609375 3.29296875 8.9609375 3.29296875 5.375 3.1875 C4.18648438 3.16042969 2.99796875 3.13335938 1.7734375 3.10546875 C0.85820313 3.07066406 -0.05703125 3.03585938 -1 3 C-0.67 2.01 -0.34 1.02 0 0 Z " fill="#EEB957" transform="translate(67,24)"/>
<path d="M0 0 C0.33 0.66 0.66 1.32 1 2 C1.66 2 2.32 2 3 2 C3.19658808 3.41543415 3.38187546 4.83244031 3.5625 6.25 C3.66691406 7.03890625 3.77132812 7.8278125 3.87890625 8.640625 C4.00027349 11.00532874 3.69633257 12.7511037 3 15 C2.34 15 1.68 15 1 15 C-0.44207941 12.11584117 -0.09394887 9.58278472 -0.0625 6.375 C-0.05347656 5.18648437 -0.04445312 3.99796875 -0.03515625 2.7734375 C-0.02355469 1.85820312 -0.01195312 0.94296875 0 0 Z " fill="#EBA930" transform="translate(33,143)"/>
<path d="M0 0 C4.875 1.75 4.875 1.75 6 4 C6.039992 5.99960012 6.04346799 8.00047242 6 10 C5.01 10 4.02 10 3 10 C0 3.375 0 3.375 0 0 Z " fill="#E3AE48" transform="translate(40,105)"/>
<path d="M0 0 C0.66 0 1.32 0 2 0 C2 2.31 2 4.62 2 7 C2.763125 6.62875 3.52625 6.2575 4.3125 5.875 C5.199375 5.58625 6.08625 5.2975 7 5 C7.99 5.66 8.98 6.32 10 7 C10 6.34 10 5.68 10 5 C9.01 4.67 8.02 4.34 7 4 C7.33 2.68 7.66 1.36 8 0 C10 1.75 10 1.75 12 4 C12 5.32 12 6.64 12 8 C8.37 8 4.74 8 1 8 C0.67 5.36 0.34 2.72 0 0 Z " fill="#A2BAC9" transform="translate(117,56)"/>
<path d="M0 0 C13.6332574 -0.3690205 13.6332574 -0.3690205 20 2 C20 2.33 20 2.66 20 3 C12.96517526 3.23668569 6.8165735 2.7879537 0 1 C0 0.67 0 0.34 0 0 Z " fill="#F4F0DF" transform="translate(64,143)"/>
<path d="M0 0 C2.375 0.6875 2.375 0.6875 3.375 1.6875 C3.41563832 3.35367115 3.417721 5.02138095 3.375 6.6875 C2.385 7.1825 2.385 7.1825 1.375 7.6875 C1.375 5.7075 1.375 3.7275 1.375 1.6875 C-0.275 1.6875 -1.925 1.6875 -3.625 1.6875 C-2.965 3.9975 -2.305 6.3075 -1.625 8.6875 C-2.945 8.3575 -4.265 8.0275 -5.625 7.6875 C-5.8125 4.8125 -5.8125 4.8125 -5.625 1.6875 C-2.625 -0.3125 -2.625 -0.3125 0 0 Z " fill="#AABECD" transform="translate(102.625,55.3125)"/>
<path d="M0 0 C1.32 0.33 2.64 0.66 4 1 C5.1577506 4.47325181 5.06866652 7.36067448 5 11 C4.01 11 3.02 11 2 11 C1.34 7.37 0.68 3.74 0 0 Z " fill="#163864" transform="translate(53,40)"/>
<path d="M0 0 C2.97 0 5.94 0 9 0 C8.1875 3.4375 8.1875 3.4375 7 7 C6.01 7.33 5.02 7.66 4 8 C2.5393715 5.35261084 2 4.10551666 2 1 C1.34 0.67 0.68 0.34 0 0 Z " fill="#3F5F82" transform="translate(73,38)"/>
<path d="M0 0 C0 5.28 0 10.56 0 16 C-0.66 16.33 -1.32 16.66 -2 17 C-2 12.05 -2 7.1 -2 2 C-3.98 2.33 -5.96 2.66 -8 3 C-8 2.01 -8 1.02 -8 0 C-6 -1 -6 -1 0 0 Z " fill="#DEAA47" transform="translate(170,140)"/>
<path d="M0 0 C2.125 0.9375 2.125 0.9375 4 2 C3.67 2.99 3.34 3.98 3 5 C3.66 5 4.32 5 5 5 C5 5.66 5 6.32 5 7 C4.01 6.67 3.02 6.34 2 6 C1.67 6.66 1.34 7.32 1 8 C0.34 8 -0.32 8 -1 8 C-1.33 5.69 -1.66 3.38 -2 1 C-1.34 0.67 -0.68 0.34 0 0 Z " fill="#333739" transform="translate(150,150)"/>
<path d="M0 0 C1.98 0.66 3.96 1.32 6 2 C6 3.32 6 4.64 6 6 C3.36 6 0.72 6 -2 6 C-1.34 4.02 -0.68 2.04 0 0 Z " fill="#DDA945" transform="translate(161,115)"/>
<path d="M0 0 C1.32 0.66 2.64 1.32 4 2 C4 3.32 4 4.64 4 6 C2.35 6.33 0.7 6.66 -1 7 C-1.04254356 5.00045254 -1.04080783 2.99958364 -1 1 C-0.67 0.67 -0.34 0.34 0 0 Z " fill="#07295F" transform="translate(82,56)"/>
<path d="M0 0 C3 1 3 1 4.16796875 2.84765625 C4.50441406 3.57855469 4.84085938 4.30945313 5.1875 5.0625 C5.53167969 5.79597656 5.87585937 6.52945313 6.23046875 7.28515625 C6.48441406 7.85105469 6.73835938 8.41695312 7 9 C4.625 8.75 4.625 8.75 2 8 C-0.09862498 5.10189884 0 3.71621139 0 0 Z " fill="#163255" transform="translate(49,131)"/>
<path d="M0 0 C0.99 0 1.98 0 3 0 C3.33 2.31 3.66 4.62 4 7 C2.02 7 0.04 7 -2 7 C-1.34 4.69 -0.68 2.38 0 0 Z " fill="#2D3845" transform="translate(88,156)"/>
<path d="M0 0 C0.99 0 1.98 0 3 0 C6 4.22222222 6 4.22222222 6 7 C4.02 7 2.04 7 0 7 C0 4.69 0 2.38 0 0 Z " fill="#272E37" transform="translate(142,152)"/>
<path d="M0 0 C1.65 0.33 3.3 0.66 5 1 C4.34 1.66 3.68 2.32 3 3 C3.66 3.33 4.32 3.66 5 4 C5 4.99 5 5.98 5 7 C3.02 7 1.04 7 -1 7 C-1 6.34 -1 5.68 -1 5 C-0.01 5 0.98 5 2 5 C1.01 4.34 0.02 3.68 -1 3 C-0.67 2.01 -0.34 1.02 0 0 Z " fill="#2A2D30" transform="translate(102,156)"/>
<path d="M0 0 C2.953626 0.984542 3.87615927 1.87615927 6 4 C6 4.66 6 5.32 6 6 C4.35 6.33 2.7 6.66 1 7 C0.34 5.02 -0.32 3.04 -1 1 C-0.67 0.67 -0.34 0.34 0 0 Z " fill="#343633" transform="translate(155,148)"/>
<path d="M0 0 C0.66 0 1.32 0 2 0 C2 0.99 2 1.98 2 3 C3.32 3 4.64 3 6 3 C6.33 2.01 6.66 1.02 7 0 C7 2.64 7 5.28 7 8 C6.67 6.68 6.34 5.36 6 4 C4.68 4 3.36 4 2 4 C2 5.32 2 6.64 2 8 C1.34 8 0.68 8 0 8 C0 5.36 0 2.72 0 0 Z " fill="#DCE9EE" transform="translate(88,56)"/>
<path d="M0 0 C1.65 0 3.3 0 5 0 C6.4783226 2.95664519 6.06032783 5.74229737 6 9 C5.01 9.33 4.02 9.66 3 10 C2.814375 8.63875 2.814375 8.63875 2.625 7.25 C2.07890323 4.41029677 1.42736197 2.47409409 0 0 Z " fill="#2D4F76" transform="translate(92,55)"/>
<path d="M0 0 C1.32 0.33 2.64 0.66 4 1 C3.67 4.3 3.34 7.6 3 11 C2.01 11 1.02 11 0 11 C0 7.37 0 3.74 0 0 Z " fill="#D9E2E8" transform="translate(128,39)"/>
<path d="M0 0 C0.99 0.33 1.98 0.66 3 1 C2.67 2.32 2.34 3.64 2 5 C0.35 5.33 -1.3 5.66 -3 6 C-3.66 5.01 -4.32 4.02 -5 3 C-2.6875 1.4375 -2.6875 1.4375 0 0 Z " fill="#E5B048" transform="translate(102,180)"/>
<path d="M0 0 C0.99 0.33 1.98 0.66 3 1 C2.67 2.65 2.34 4.3 2 6 C0.68 6 -0.64 6 -2 6 C-2 5.34 -2 4.68 -2 4 C-2.66 4 -3.32 4 -4 4 C-3.67 3.01 -3.34 2.02 -3 1 C-2.01 1.33 -1.02 1.66 0 2 C0 1.34 0 0.68 0 0 Z " fill="#F1B446" transform="translate(115,168)"/>
<path d="M0 0 C2 3 2 3 2 5 C2.66 5 3.32 5 4 5 C4 3.35 4 1.7 4 0 C4.66 0 5.32 0 6 0 C6 1.98 6 3.96 6 6 C4.34385343 6.38218767 2.67542976 6.71395102 1 7 C0 6 0 6 -0.0625 2.9375 C-0.041875 1.968125 -0.02125 0.99875 0 0 Z " fill="#2B2E2C" transform="translate(131,154)"/>
<path d="M0 0 C0.99 0 1.98 0 3 0 C3 2.31 3 4.62 3 7 C2.34 7 1.68 7 1 7 C1 6.34 1 5.68 1 5 C-0.32 4.67 -1.64 4.34 -3 4 C-1.6875 2 -1.6875 2 0 0 Z " fill="#1B2C3E" transform="translate(49,151)"/>
<path d="M0 0 C0.185625 0.9590625 0.185625 0.9590625 0.375 1.9375 C0.684375 2.9584375 0.684375 2.9584375 1 4 C1.66 4.33 2.32 4.66 3 5 C1.68 6.32 0.36 7.64 -1 9 C-1 8.01 -1 7.02 -1 6 C-1.66 6 -2.32 6 -3 6 C-1.125 1.125 -1.125 1.125 0 0 Z " fill="#997636" transform="translate(43,148)"/>
<path d="M0 0 C0.66 0.33 1.32 0.66 2 1 C1.125 5.75 1.125 5.75 0 8 C-1.32 8 -2.64 8 -4 8 C-3.6875 6.0625 -3.6875 6.0625 -3 4 C-2.01 3.67 -1.02 3.34 0 3 C0 2.01 0 1.02 0 0 Z " fill="#E8B54D" transform="translate(149,126)"/>
<path d="M0 0 C0.33 1.98 0.66 3.96 1 6 C-0.65 6.33 -2.3 6.66 -4 7 C-4 5.02 -4 3.04 -4 1 C-2 0 -2 0 0 0 Z " fill="#315376" transform="translate(95,41)"/>
<path d="M0 0 C1.32 0 2.64 0 4 0 C5.52448631 2.9826906 6.93940067 5.818202 8 9 C7.01 9 6.02 9 5 9 C2 3.25 2 3.25 2 1 C1.34 0.67 0.68 0.34 0 0 Z " fill="#D0DCE2" transform="translate(71,39)"/>
<path d="M0 0 C1.5 1.375 1.5 1.375 3 3 C3 3.66 3 4.32 3 5 C-2.28 5 -7.56 5 -13 5 C-13 4.67 -13 4.34 -13 4 C-12.22914062 3.96261719 -11.45828125 3.92523438 -10.6640625 3.88671875 C-9.15972656 3.78810547 -9.15972656 3.78810547 -7.625 3.6875 C-6.62726563 3.62949219 -5.62953125 3.57148437 -4.6015625 3.51171875 C-3.74304688 3.34285156 -2.88453125 3.17398438 -2 3 C-1.34 2.01 -0.68 1.02 0 0 Z " fill="#EEB84D" transform="translate(77,121)"/>
<path d="M0 0 C1.69141656 0.08963062 3.37959602 0.24577676 5.0625 0.4375 C6.44115234 0.59025391 6.44115234 0.59025391 7.84765625 0.74609375 C8.55792969 0.82988281 9.26820313 0.91367188 10 1 C7.23776722 3.76223278 4.79293383 3.57856291 1 4 C1 3.34 1 2.68 1 2 C0.34 1.67 -0.32 1.34 -1 1 C-0.67 0.67 -0.34 0.34 0 0 Z " fill="#CBA45D" transform="translate(131,168)"/>
<path d="M0 0 C1.32 0 2.64 0 4 0 C4.33 1.65 4.66 3.3 5 5 C4.01 5 3.02 5 2 5 C2 7.64 2 10.28 2 13 C1.67 13 1.34 13 1 13 C0.67 8.71 0.34 4.42 0 0 Z " fill="#EEBF66" transform="translate(104,79)"/>
<path d="M0 0 C0.66 1.32 1.32 2.64 2 4 C1.01 4.495 1.01 4.495 0 5 C-0.99 6.485 -0.99 6.485 -2 8 C-2.33 7.34 -2.66 6.68 -3 6 C-3.66 6 -4.32 6 -5 6 C-5 4.68 -5 3.36 -5 2 C-3.68 2 -2.36 2 -1 2 C-0.67 1.34 -0.34 0.68 0 0 Z " fill="#22456E" transform="translate(65,39)"/>
<path d="M0 0 C1.65 0 3.3 0 5 0 C4.01 0.33 3.02 0.66 2 1 C2 1.66 2 2.32 2 3 C2.99 3.33 3.98 3.66 5 4 C4.01 4 3.02 4 2 4 C2 4.66 2 5.32 2 6 C2.99 6.33 3.98 6.66 5 7 C3.35 7 1.7 7 0 7 C0 4.69 0 2.38 0 0 Z " fill="#1A2430" transform="translate(108,156)"/>
<path d="M0 0 C0.33 0 0.66 0 1 0 C2 5 3 10 4 15 C-0.67540984 9.5704918 -0.67540984 9.5704918 -1 6 C-0.72949547 3.99053778 -0.40632091 1.98645776 0 0 Z " fill="#EFE5CA" transform="translate(28,129)"/>
<path d="M0 0 C0.33 0 0.66 0 1 0 C1.66 2.64 2.32 5.28 3 8 C4.32 8.33 5.64 8.66 7 9 C5.68 9.99 4.36 10.98 3 12 C0.58314288 7.77050005 -0.34833144 4.87664009 0 0 Z " fill="#EAD9AF" transform="translate(96,119)"/>
<path d="M0 0 C1.98 0.99 1.98 0.99 4 2 C4 4.31 4 6.62 4 9 C3.01 9.33 2.02 9.66 1 10 C1.020625 8.906875 1.04125 7.81375 1.0625 6.6875 C1.18544452 3.05615809 1.18544452 3.05615809 0 0 Z " fill="#D4E0E6" transform="translate(141,40)"/>
<path d="M0 0 C2.31 0 4.62 0 7 0 C7.33 0.99 7.66 1.98 8 3 C5.69 3 3.38 3 1 3 C0.67 2.01 0.34 1.02 0 0 Z " fill="#F0B753" transform="translate(134,25)"/>
<path d="M0 0 C1.32 0 2.64 0 4 0 C4 2 4 2 2.6875 3.625 C1 5 1 5 -2 5 C-2 4.34 -2 3.68 -2 3 C-2.66 2.67 -3.32 2.34 -4 2 C-2.68 2 -1.36 2 0 2 C0 1.34 0 0.68 0 0 Z " fill="#EFB13A" transform="translate(56,160)"/>
<path d="M0 0 C1.32 0.33 2.64 0.66 4 1 C3.34 1 2.68 1 2 1 C2 1.66 2 2.32 2 3 C2.66 3.33 3.32 3.66 4 4 C3.34 4 2.68 4 2 4 C2 4.66 2 5.32 2 6 C2.99 6.33 3.98 6.66 5 7 C3.35 7 1.7 7 0 7 C0 4.69 0 2.38 0 0 Z " fill="#2F373D" transform="translate(66,154)"/>
<path d="M0 0 C0 0.66 0 1.32 0 2 C0.66 2 1.32 2 2 2 C2 2.66 2 3.32 2 4 C0.02 4 -1.96 4 -4 4 C-4.33 3.01 -4.66 2.02 -5 1 C-3 0 -3 0 0 0 Z " fill="#ECAC2F" transform="translate(38,116)"/>
<path d="M0 0 C0.66 0 1.32 0 2 0 C2.33 2.31 2.66 4.62 3 7 C1.68 6.67 0.36 6.34 -1 6 C-1.042721 4.33388095 -1.04063832 2.66617115 -1 1 C-0.67 0.67 -0.34 0.34 0 0 Z " fill="#C79E4A" transform="translate(41,99)"/>
<path d="M0 0 C2.97 0.33 5.94 0.66 9 1 C8.01 1.33 7.02 1.66 6 2 C5.67 2.99 5.34 3.98 5 5 C4.67 4.01 4.34 3.02 4 2 C3.01 2 2.02 2 1 2 C0.67 2.99 0.34 3.98 0 5 C-0.33 4.34 -0.66 3.68 -1 3 C-0.67 2.01 -0.34 1.02 0 0 Z " fill="#E4E2D6" transform="translate(98,79)"/>
<path d="M0 0 C0.33 0 0.66 0 1 0 C1 1.65 1 3.3 1 5 C1.66 5 2.32 5 3 5 C3 5.99 3 6.98 3 8 C1.35 8 -0.3 8 -2 8 C-2 7.01 -2 6.02 -2 5 C-1.34 5 -0.68 5 0 5 C0 3.35 0 1.7 0 0 Z " fill="#F1CC7D" transform="translate(67,116)"/>
<path d="M0 0 C0.66 0.33 1.32 0.66 2 1 C1.96744792 3.01822917 1.93489583 5.03645833 1.90234375 7.0546875 C1.87350758 9.08185404 1.87350758 9.08185404 3 11 C1.02 11 -0.96 11 -3 11 C-2.67 10.34 -2.34 9.68 -2 9 C-1.34 9 -0.68 9 0 9 C0 6.03 0 3.06 0 0 Z " fill="#D0DDE4" transform="translate(121,39)"/>
<path d="M0 0 C2.97 0 5.94 0 9 0 C8.01 0.33 7.02 0.66 6 1 C6.33 2.32 6.66 3.64 7 5 C3.535 3.02 3.535 3.02 0 1 C0 0.67 0 0.34 0 0 Z " fill="#4D5964" transform="translate(74,172)"/>
<path d="M0 0 C1.65 0 3.3 0 5 0 C4.67 2.31 4.34 4.62 4 7 C3.34 7 2.68 7 2 7 C1.34 4.69 0.68 2.38 0 0 Z " fill="#2B3136" transform="translate(117,156)"/>
<path d="M0 0 C1.32 0.66 2.64 1.32 4 2 C3.67 3.32 3.34 4.64 3 6 C0.03 5.505 0.03 5.505 -3 5 C-2.01 4.67 -1.02 4.34 0 4 C0 2.68 0 1.36 0 0 Z " fill="#D5BF8C" transform="translate(135,121)"/>
<path d="M0 0 C1.65 0 3.3 0 5 0 C5 0.99 5 1.98 5 3 C5.66 3.33 6.32 3.66 7 4 C4.03 3.505 4.03 3.505 1 3 C0.67 2.01 0.34 1.02 0 0 Z " fill="#F2CE8D" transform="translate(65,84)"/>
<path d="M0 0 C0.99 0 1.98 0 3 0 C3.33 2.31 3.66 4.62 4 7 C2 5.1875 2 5.1875 0 3 C0 2.01 0 1.02 0 0 Z " fill="#C7D5DC" transform="translate(66,39)"/>
<path d="M0 0 C0.66 0.33 1.32 0.66 2 1 C1.67 2.32 1.34 3.64 1 5 C-0.65 5.33 -2.3 5.66 -4 6 C-2.84826645 3.53199953 -1.95216435 1.95216435 0 0 Z " fill="#EBA934" transform="translate(159,158)"/>
<path d="M0 0 C2.0625 0.4375 2.0625 0.4375 4 1 C3.34 1 2.68 1 2 1 C2 2.65 2 4.3 2 6 C1.34 6 0.68 6 0 6 C-0.38218767 4.34385343 -0.71395102 2.67542976 -1 1 C-0.67 0.67 -0.34 0.34 0 0 Z " fill="#D1A242" transform="translate(133,153)"/>
<path d="M0 0 C0.33 0.99 0.66 1.98 1 3 C0.67 3.66 0.34 4.32 0 5 C-2.0625 5.625 -2.0625 5.625 -4 6 C-3.6875 4.125 -3.6875 4.125 -3 2 C-2.01 1.34 -1.02 0.68 0 0 Z " fill="#122D50" transform="translate(153,129)"/>
<path d="M0 0 C1.65 0.33 3.3 0.66 5 1 C5 1.99 5 2.98 5 4 C3.02 4 1.04 4 -1 4 C-0.67 2.68 -0.34 1.36 0 0 Z " fill="#F5DB9D" transform="translate(81,125)"/>
<path d="M0 0 C2.3431213 0.25561323 4.67843403 0.59270772 7 1 C7.33 1.66 7.66 2.32 8 3 C2.25 3.125 2.25 3.125 0 2 C0 1.34 0 0.68 0 0 Z " fill="#B99E6C" transform="translate(162,114)"/>
<path d="" fill="#FEFEFE" transform="translate(0,0)"/>
</svg>
